<svg id="Layer_1" data-name="Layer 1" xmlns="http://www.w3.org/2000/svg" viewBox="0 0 227.6 178.19"><defs><style>.cls-1{fill:#606060;}</style></defs><title>logo</title><path class="cls-1" d="M277,281.5h5v1.76H280.7l-4.4,13.66h-3.11L269,283.48l-3.85,13.43h-3.08l-4.5-13.66h-1.36V281.5h5v1.76h-1.34l3.73,11.85,3.94-13.6h3l4.19,13.6,3.8-11.85H277V281.5Z" transform="translate(-256.22 -207.38)"/><path class="cls-1" d="M291.93,281.5h4.92v1.76h-1.46v11.91h1.46v1.75h-4.92v-1.75h1.46V283.26h-1.46V281.5Z" transform="translate(-256.22 -207.38)"/><path class="cls-1" d="M308.12,281.5h5v1.76h-1.57v11.91h1.55v1.75h-5v-1.75h1.46V283.26h-1.44V281.5Zm10.19,1.76V281.5h3.54v1.76h-1.21l-6.75,5.69,6.32,6.22h1.65v1.75H317.7v-1.75L311.57,289Z" transform="translate(-256.22 -207.38)"/><path class="cls-1" d="M332.36,281.5h4.92v1.76h-1.46v11.91h1.46v1.75h-4.92v-1.75h1.46V283.26h-1.46V281.5Z" transform="translate(-256.22 -207.38)"/><path class="cls-1" d="M361.41,281.5h6.23a6.53,6.53,0,0,1,1.91.27,4.43,4.43,0,0,1,1.51.8,3.53,3.53,0,0,1,1,1.31,4.34,4.34,0,0,1,.35,1.8,3.73,3.73,0,0,1-.35,1.59,3.93,3.93,0,0,1-1,1.31,4.71,4.71,0,0,1-1.51.88,5.61,5.61,0,0,1-2,.33h-2.74v5.39h1.55v1.75h-5v-1.75h1.46V283.26h-1.46V281.5Zm3.46,1.76v4.85h2.78a3.31,3.31,0,0,0,1.06-.16,2.35,2.35,0,0,0,.83-0.46,2.08,2.08,0,0,0,.55-0.76,2.61,2.61,0,0,0,.2-1.06,2.28,2.28,0,0,0-.69-1.77,3.19,3.19,0,0,0-2.21-.64h-2.52Z" transform="translate(-256.22 -207.38)"/><path class="cls-1" d="M382.67,281.5h5v1.76h-1.55v11.91h5.32a0.78,0.78,0,0,0,.33-0.08,1.11,1.11,0,0,0,.29-0.2,1,1,0,0,0,.21-0.28,0.68,0.68,0,0,0,.08-0.32v-1.94h1.93v4.57H382.67v-1.75h1.46V283.26h-1.46V281.5Z" transform="translate(-256.22 -207.38)"/><path class="cls-1" d="M413.31,295.17h1.28l-1.22-3.5h-5.93l-1.19,3.5h1.59v1.75h-5v-1.75h1.34L409,281.5h3l4.79,13.67h1.55v1.75h-5v-1.75ZM408,290h4.76l-2.4-6.89Z" transform="translate(-256.22 -207.38)"/><path class="cls-1" d="M439.14,285.57a5,5,0,0,0-1.8-1.82,4.86,4.86,0,0,0-2.51-.66,4.67,4.67,0,0,0-2.16.5,5.25,5.25,0,0,0-1.67,1.34,6.22,6.22,0,0,0-1.08,1.94,7,7,0,0,0-.39,2.32,7.13,7.13,0,0,0,.43,2.56,5.62,5.62,0,0,0,1.11,1.85,5.89,5.89,0,0,0,1.63,1.23,4.51,4.51,0,0,0,2.13.5,5,5,0,0,0,2.8-.78,6,6,0,0,0,2-2.56l1.79,0.84a6.26,6.26,0,0,1-1.31,2.12,6.94,6.94,0,0,1-2.28,1.65,7.11,7.11,0,0,1-3,.62,7,7,0,0,1-2.9-.59,7.43,7.43,0,0,1-3.93-4.3,9.15,9.15,0,0,1-.55-3.14,8.85,8.85,0,0,1,.55-3.11,7.69,7.69,0,0,1,1.53-2.54,7.12,7.12,0,0,1,2.34-1.71,6.9,6.9,0,0,1,2.94-.63,6.7,6.7,0,0,1,2.44.4,7,7,0,0,1,1.74,1,7.13,7.13,0,0,1,1.24,1.2h1.08v1.81h-2.19Z" transform="translate(-256.22 -207.38)"/><path class="cls-1" d="M451.87,281.5h11v4.36h-2.09v-2.6h-5.5v4.93H460v1.75h-4.63v5.23h5.5v-2.6h2.09v4.35h-11v-1.75h1.46V283.26h-1.46V281.5Z" transform="translate(-256.22 -207.38)"/><path class="cls-1" d="M480.86,284.35a2.55,2.55,0,0,0-.72-0.69,3.4,3.4,0,0,0-.86-0.37,3.51,3.51,0,0,0-.94-0.13,4.68,4.68,0,0,0-1.35.18,2.88,2.88,0,0,0-1,.48,2,2,0,0,0-.57.71,2,2,0,0,0-.19.85,2.14,2.14,0,0,0,.24,1.08,1.94,1.94,0,0,0,.6.66,3.11,3.11,0,0,0,.81.39l0.85,0.29,2.05,0.67a9.83,9.83,0,0,1,1.63.67,4.47,4.47,0,0,1,1.19.89,3.53,3.53,0,0,1,.73,1.18,4.48,4.48,0,0,1,.25,1.55,4,4,0,0,1-.39,1.77,4.29,4.29,0,0,1-1.09,1.41,5.21,5.21,0,0,1-1.67.94,6.42,6.42,0,0,1-2.13.34,6.7,6.7,0,0,1-2-.27,4.39,4.39,0,0,1-1.42-.72,3.75,3.75,0,0,1-.92-1,5.59,5.59,0,0,1-.54-1.19h-0.77v-1.75h2.56a3.79,3.79,0,0,0,.24,1.6,2.13,2.13,0,0,0,.67.78,3,3,0,0,0,1,.47,5.07,5.07,0,0,0,1.3.16,4.43,4.43,0,0,0,1.25-.16,2.75,2.75,0,0,0,.95-0.47,2.07,2.07,0,0,0,.6-0.75,2.36,2.36,0,0,0,.21-1,2,2,0,0,0-.26-1.05,2.57,2.57,0,0,0-.67-0.74,3.8,3.8,0,0,0-.89-0.5c-0.32-.13-0.63-0.24-0.93-0.34l-2.23-.63a6.45,6.45,0,0,1-1.34-.57,3.88,3.88,0,0,1-1-.84,3.52,3.52,0,0,1-.67-1.16,4.67,4.67,0,0,1-.23-1.54,4,4,0,0,1,.35-1.66,3.83,3.83,0,0,1,1-1.35,4.88,4.88,0,0,1,1.64-.91,7,7,0,0,1,2.22-.33,5.67,5.67,0,0,1,1.52.19,4.9,4.9,0,0,1,1.26.54,4.47,4.47,0,0,1,1,.85,5.15,5.15,0,0,1,.73,1.08h0.76v1.75h-2.49A2.29,2.29,0,0,0,480.86,284.35Z" transform="translate(-256.22 -207.38)"/><path class="cls-1" d="M258.21,315h19.63v7.76h-3.71v-4.63h-9.78v8.8h9.42v3h-9.42v9.33h2.75v3.11h-8.89V339.3h2.6V318.13h-2.6V315Z" transform="translate(-256.22 -207.38)"/><path class="cls-1" d="M299.94,343a12.5,12.5,0,0,1-5.19-1.06,13.18,13.18,0,0,1-7-7.64,16.31,16.31,0,0,1-1-5.55,15.85,15.85,0,0,1,1-5.57,13.81,13.81,0,0,1,2.71-4.53,12.73,12.73,0,0,1,4.16-3,12.81,12.81,0,0,1,14.8,3,13.82,13.82,0,0,1,2.69,4.53,16,16,0,0,1,1,5.57,15.78,15.78,0,0,1-1,5.56,14,14,0,0,1-2.71,4.53,12.68,12.68,0,0,1-4.16,3A12.53,12.53,0,0,1,299.94,343Zm0-3.36a8.49,8.49,0,0,0,3.9-.89,9.22,9.22,0,0,0,3-2.38,10.93,10.93,0,0,0,1.9-3.46,13.22,13.22,0,0,0-.06-8.49,10.25,10.25,0,0,0-2-3.53,9.2,9.2,0,0,0-3-2.23,8.66,8.66,0,0,0-3.62-.79,8.54,8.54,0,0,0-3.9.89,9.16,9.16,0,0,0-3,2.38,10.84,10.84,0,0,0-1.9,3.47,13.65,13.65,0,0,0,.07,8.66,9.81,9.81,0,0,0,2,3.29,10.72,10.72,0,0,0,2.91,2.2A8.16,8.16,0,0,0,299.94,339.59Z" transform="translate(-256.22 -207.38)"/><path class="cls-1" d="M324.36,315h11.41a11.36,11.36,0,0,1,3.37.48,7.74,7.74,0,0,1,2.68,1.41,6.39,6.39,0,0,1,1.76,2.32,7.67,7.67,0,0,1,.63,3.2,5.84,5.84,0,0,1-.37,2,7.05,7.05,0,0,1-1,1.86,7.87,7.87,0,0,1-1.56,1.53,7.22,7.22,0,0,1-2,1,4.2,4.2,0,0,1,.91.57,5.21,5.21,0,0,1,.87.9,7.41,7.41,0,0,1,.74,1.21,7.54,7.54,0,0,1,.53,1.46l1.52,6h2.37l0,3.44h-5.33l-2-8.33a6.55,6.55,0,0,0-1.71-3.3,4.45,4.45,0,0,0-3.14-1.06h-3.53v9.58h2.75v3.11h-8.89V339.3H327V318.13h-2.6V315Zm6.15,3.13v8.62h5.26a6.24,6.24,0,0,0,1.89-.27,4.12,4.12,0,0,0,1.48-.81,3.76,3.76,0,0,0,1-1.35,4.62,4.62,0,0,0,.35-1.87,4.12,4.12,0,0,0-1.23-3.18,5.62,5.62,0,0,0-3.9-1.14h-4.83Z" transform="translate(-256.22 -207.38)"/><path class="cls-1" d="M373.66,315h8.89v3.13h-2.78V339.3h2.75v3.11h-8.9V339.3h2.6V318.13h-2.57V315Zm18.11,3.13V315h6.29v3.13h-2.15l-12,10.11,11.23,11.06h2.93v3.11h-7.38V339.3l-10.88-10.88Z" transform="translate(-256.22 -207.38)"/><path class="cls-1" d="M409.36,315h8.75v3.13h-2.6V339.3h2.6v3.11h-8.75V339.3H412V318.13h-2.6V315Z" transform="translate(-256.22 -207.38)"/><path class="cls-1" d="M430.69,315h10.2a12.93,12.93,0,0,1,3.58.49,13.08,13.08,0,0,1,7.85,6.26,13.87,13.87,0,0,1,1.29,3.26,14.42,14.42,0,0,1,.45,3.63,14.67,14.67,0,0,1-.45,3.67,14.2,14.2,0,0,1-1.29,3.29,13.39,13.39,0,0,1-2,2.79,12.82,12.82,0,0,1-9.4,4h-10.2V339.3h2.6V318.13h-2.6V315Zm6.15,3.13V339.3h4.27a7.92,7.92,0,0,0,3.57-.83,9.34,9.34,0,0,0,2.92-2.27,10.9,10.9,0,0,0,2-3.38,11.94,11.94,0,0,0,.72-4.19,11.61,11.61,0,0,0-.72-4.12,10.75,10.75,0,0,0-2-3.34,9.23,9.23,0,0,0-2.92-2.23,8.05,8.05,0,0,0-3.57-.81h-4.27Z" transform="translate(-256.22 -207.38)"/><path class="cls-1" d="M478.81,320.06a4.48,4.48,0,0,0-1.27-1.22,6,6,0,0,0-1.53-.65,6.3,6.3,0,0,0-1.66-.23,8.23,8.23,0,0,0-2.4.32,5.1,5.1,0,0,0-1.71.86,3.59,3.59,0,0,0-1,1.27,3.5,3.5,0,0,0-.34,1.52,3.81,3.81,0,0,0,.42,1.93,3.55,3.55,0,0,0,1.08,1.18,5.56,5.56,0,0,0,1.44.7l1.51,0.51,3.65,1.19a17.67,17.67,0,0,1,2.9,1.19A7.94,7.94,0,0,1,482,330.2a6.24,6.24,0,0,1,1.29,2.11,7.93,7.93,0,0,1,.44,2.77,7.17,7.17,0,0,1-.7,3.15,7.63,7.63,0,0,1-1.94,2.51,9.22,9.22,0,0,1-3,1.67,11.35,11.35,0,0,1-3.79.61,12,12,0,0,1-3.62-.48,7.92,7.92,0,0,1-2.52-1.28,6.68,6.68,0,0,1-1.64-1.83,10,10,0,0,1-1-2.12H464.2v-3.11h4.56a6.76,6.76,0,0,0,.42,2.84,3.85,3.85,0,0,0,1.18,1.38,5.43,5.43,0,0,0,1.81.83,8.91,8.91,0,0,0,2.31.28,7.89,7.89,0,0,0,2.21-.29,4.88,4.88,0,0,0,1.68-.84,3.73,3.73,0,0,0,1.07-1.34,4.15,4.15,0,0,0,.37-1.78,3.58,3.58,0,0,0-.46-1.87,4.56,4.56,0,0,0-1.18-1.31,6.91,6.91,0,0,0-1.58-.89q-0.86-.34-1.65-0.6l-4-1.12a11.6,11.6,0,0,1-2.38-1,7,7,0,0,1-1.84-1.5,6.31,6.31,0,0,1-1.18-2.07,8.22,8.22,0,0,1-.42-2.74,7.14,7.14,0,0,1,.61-2.95,6.85,6.85,0,0,1,1.81-2.4,8.68,8.68,0,0,1,2.92-1.62,12.27,12.27,0,0,1,4-.59,10.12,10.12,0,0,1,2.7.34,8.53,8.53,0,0,1,2.24,1,7.82,7.82,0,0,1,1.77,1.5,9.07,9.07,0,0,1,1.29,1.93h1.36v3.11h-4.43A4.05,4.05,0,0,0,478.81,320.06Z" transform="translate(-256.22 -207.38)"/><path class="cls-1" d="M287.8,379.62a2.33,2.33,0,0,1-.6-1.94,7.13,7.13,0,0,1,1.53-3.33,12.48,12.48,0,0,1,2.5-2.52,5.11,5.11,0,0,1,2.23-.94,2.83,2.83,0,0,1,2,.34,1.85,1.85,0,0,1,.81,2.1,0.73,0.73,0,0,1-.29.49,0.79,0.79,0,0,1-.54.16,1,1,0,0,1,.46.42q0.32,0.72-.72,2.06c-0.08.11-.24,0.3-0.49,0.58l-0.13.34-0.15.4a1.86,1.86,0,0,0-.09.72,0.67,0.67,0,0,0,.26,0q1.71,0,3.47-3.33a0.82,0.82,0,0,1,.49-0.41,0.78,0.78,0,0,1,.62.06,0.82,0.82,0,0,1,.4.49,0.77,0.77,0,0,1-.06.62,11,11,0,0,1-2.29,3.12,3.8,3.8,0,0,1-2.64,1.09,1.82,1.82,0,0,1-1.64-.74,4.89,4.89,0,0,1-.19-0.46,5.63,5.63,0,0,1-3.06,1.44h-0.12A2.27,2.27,0,0,1,287.8,379.62Zm4.4-6.46a11,11,0,0,0-2.19,2.21,5.06,5.06,0,0,0-1.19,2.44,1,1,0,0,0,.19.69,0.7,0.7,0,0,0,.6.23q1.39-.07,3.66-2.59a1.46,1.46,0,0,0,.1-0.2l0.08-.2,0.14-.3a4.48,4.48,0,0,1,.53-0.95,1.22,1.22,0,0,1,.95-0.58h0.07a0.76,0.76,0,0,1-.51-0.92c0-.23,0-0.36-0.09-0.4a1,1,0,0,0-.51-0.12A3.11,3.11,0,0,0,292.2,373.17Z" transform="translate(-256.22 -207.38)"/><path class="cls-1" d="M299.46,379.41a0.73,0.73,0,0,1-.42-1c0-.06.15-0.41,0.37-1.05s0.45-1.44.7-2.41a14,14,0,0,0,.45-2.28,0.85,0.85,0,0,1,.3-0.54,0.8,0.8,0,0,1,.6-0.2,0.85,0.85,0,0,1,.54.3,0.8,0.8,0,0,1,.2.6q-0.07.62-.25,1.53a12.86,12.86,0,0,1,1.32-1.39,4.28,4.28,0,0,1,2.75-1.3,2.31,2.31,0,0,1,2.06.85,2.52,2.52,0,0,1,.25,1.92,12.27,12.27,0,0,1-.53,1.78q-0.28.79-.37,1.11a1.87,1.87,0,0,0-.07.39,3.48,3.48,0,0,0,.74-0.11,3.34,3.34,0,0,0,1.78-1.58,7.82,7.82,0,0,0,.76-1.46,0.77,0.77,0,0,1,.43-0.46,0.83,0.83,0,0,1,.64,0,0.77,0.77,0,0,1,.44.43,0.83,0.83,0,0,1,0,.64,2,2,0,0,1-.09.25,6.87,6.87,0,0,1-.32.66q-0.23.43-.49,0.82a5,5,0,0,1-2.78,2.31,2.35,2.35,0,0,1-2.41-.35,1.67,1.67,0,0,1-.3-1.67,15.54,15.54,0,0,1,.46-1.55,9.33,9.33,0,0,0,.49-1.5c0-.09,0-0.18,0-0.26s0-.14,0-0.19a0.59,0.59,0,0,0,0-.13,0.18,0.18,0,0,0,0-.07v0a1,1,0,0,0-.72-0.16q-1.74,0-5.53,5.81a0.8,0.8,0,0,1-.69.37A0.69,0.69,0,0,1,299.46,379.41Z" transform="translate(-256.22 -207.38)"/><path class="cls-1" d="M312.77,379.37a2.33,2.33,0,0,1-.79-2,6.36,6.36,0,0,1,1.26-3.27,10.62,10.62,0,0,1,2.51-2.72,5.54,5.54,0,0,1,2.36-1,2.8,2.8,0,0,1,2,.3,0.13,0.13,0,0,0,.07,0q0.95-2.43,2.71-6.23l0.3-.65a4.34,4.34,0,0,1,.49-0.9,1.12,1.12,0,0,1,.88-0.63,0.82,0.82,0,0,1,.81.37,1.25,1.25,0,0,1,0,1.11,5.93,5.93,0,0,1-.44,1l-0.24.51-0.34.72q-1.74,3.86-3.06,6.29a25.55,25.55,0,0,0-1.05,3.49,8.55,8.55,0,0,0-.25,1.79,1.16,1.16,0,0,0,.15.54,0.19,0.19,0,0,0,.14,0,2.35,2.35,0,0,0,1.47-.56,8.16,8.16,0,0,0,1.7-2.43,0.82,0.82,0,0,1,.49-0.4,0.76,0.76,0,0,1,.63.06A0.81,0.81,0,0,1,325,376a10.47,10.47,0,0,1-2.15,3,3.77,3.77,0,0,1-2.48.9,1.69,1.69,0,0,1-1.53-.81,3.61,3.61,0,0,1-.37-2.06c-0.28.37-.49,0.63-0.62,0.79a5.91,5.91,0,0,1-2.94,2.15,2.26,2.26,0,0,1-.56.07A2.29,2.29,0,0,1,312.77,379.37ZM318.3,372a3.79,3.79,0,0,0-1.6.72,8.35,8.35,0,0,0-2,2.2,5.53,5.53,0,0,0-1.06,2.52,0.84,0.84,0,0,0,.21.67,0.81,0.81,0,0,0,.72.21q1.67-.37,4.51-5.25l0.25-.42a0.58,0.58,0,0,1,0-.33,0.27,0.27,0,0,0,0-.28,1.13,1.13,0,0,0-.51-0.1A2,2,0,0,0,318.3,372Z" transform="translate(-256.22 -207.38)"/><path class="cls-1" d="M342.78,373.44a4.69,4.69,0,0,1-.49,2.82,6.57,6.57,0,0,1-2.55,2.68,5.45,5.45,0,0,1-3.36,1,2.49,2.49,0,0,1-1.39-.46l-0.09-.09-0.46,1.34a1.31,1.31,0,0,0,0,.2,1.53,1.53,0,0,1,0,.2q-0.44,1.62-1.2,3.89a0.79,0.79,0,0,1-.76.53,1.24,1.24,0,0,1-.28,0,0.82,0.82,0,0,1-.47-0.4,0.81,0.81,0,0,1-.06-0.62q0.93-3.08,1.3-4.19a83.58,83.58,0,0,0,1.9-9.56,0.74,0.74,0,0,1,.29-0.56,0.83,0.83,0,0,1,1.17.16,0.78,0.78,0,0,1,.16.6q0,0.42-.15,1.13c-0.07.48-.12,0.81-0.15,1a5.89,5.89,0,0,1,1.87-1.8,3.72,3.72,0,0,1,2.71-.33,2.47,2.47,0,0,1,1.41.9A3.35,3.35,0,0,1,342.78,373.44Zm-3.91,4.12a5.05,5.05,0,0,0,1.9-1.9,3.19,3.19,0,0,0,.39-1.94,1.23,1.23,0,0,0-.86-1.16,2.32,2.32,0,0,0-1.56.17,4.62,4.62,0,0,0-1.63,1.74,23.41,23.41,0,0,0-1.69,3.54,0.84,0.84,0,0,1,.56.16h0a1.67,1.67,0,0,0,.65.16A4.39,4.39,0,0,0,338.87,377.56Z" transform="translate(-256.22 -207.38)"/><path class="cls-1" d="M345.68,379.62a2.33,2.33,0,0,1-.6-1.94,7.13,7.13,0,0,1,1.53-3.33,12.48,12.48,0,0,1,2.5-2.52,5.11,5.11,0,0,1,2.23-.94,2.83,2.83,0,0,1,2,.34,1.85,1.85,0,0,1,.81,2.1,0.73,0.73,0,0,1-.29.49,0.79,0.79,0,0,1-.54.16,1,1,0,0,1,.46.42q0.32,0.72-.72,2.06c-0.08.11-.24,0.3-0.49,0.58l-0.13.34-0.15.4a1.86,1.86,0,0,0-.09.72,0.67,0.67,0,0,0,.25,0q1.71,0,3.47-3.33a0.82,0.82,0,0,1,.49-0.41,0.78,0.78,0,0,1,.63.06,0.82,0.82,0,0,1,.4.49,0.77,0.77,0,0,1-.06.62,11,11,0,0,1-2.29,3.12,3.8,3.8,0,0,1-2.64,1.09,1.82,1.82,0,0,1-1.64-.74,4.64,4.64,0,0,1-.19-0.46,5.63,5.63,0,0,1-3.06,1.44h-0.12A2.27,2.27,0,0,1,345.68,379.62Zm4.4-6.46a11,11,0,0,0-2.19,2.21,5.06,5.06,0,0,0-1.19,2.44,1,1,0,0,0,.19.69,0.7,0.7,0,0,0,.6.23q1.39-.07,3.66-2.59a1.41,1.41,0,0,0,.1-0.2c0-.08.07-0.15,0.08-0.2l0.14-.3a4.44,4.44,0,0,1,.53-0.95,1.22,1.22,0,0,1,.95-0.58H353a0.76,0.76,0,0,1-.51-0.92c0-.23,0-0.36-0.09-0.4a1,1,0,0,0-.51-0.12A3.11,3.11,0,0,0,350.07,373.17Z" transform="translate(-256.22 -207.38)"/><path class="cls-1" d="M361.16,379.25a2,2,0,0,1-.28-1.53,7,7,0,0,1,.72-2.11,3.82,3.82,0,0,0,.58-1.87,2.07,2.07,0,0,0-1-1.11l-0.69,1.53-0.71,1.55-0.31.67a0.86,0.86,0,0,1-.49.42,0.78,0.78,0,0,1-.62,0,0.76,0.76,0,0,1-.42-0.46,0.8,0.8,0,0,1,0-.63q0.56-1.09,1.9-4.12a1.86,1.86,0,0,1-.18-0.37,1.47,1.47,0,0,1,.09-1.29,1.27,1.27,0,0,1,.67-0.61,1,1,0,0,1,.83,0,1.12,1.12,0,0,1,.63,1.2,3.35,3.35,0,0,1-.09.58,3.73,3.73,0,0,1,2,2.36,5.16,5.16,0,0,1-.72,2.89,3.43,3.43,0,0,0-.56,2,0.47,0.47,0,0,0,.3,0h0a3.7,3.7,0,0,0,2-.95,8.41,8.41,0,0,0,1.91-2.2,0.74,0.74,0,0,1,.5-0.38,0.81,0.81,0,0,1,.64.1,0.78,0.78,0,0,1,.28,1.11,9.46,9.46,0,0,1-2.31,2.64A5.37,5.37,0,0,1,363,380h-0.23A1.74,1.74,0,0,1,361.16,379.25Z" transform="translate(-256.22 -207.38)"/><path class="cls-1" d="M370.38,379.82a2.79,2.79,0,0,1-1.35-1.31,3.27,3.27,0,0,1-.21-2.36,8.59,8.59,0,0,1,1.53-3.06,6.68,6.68,0,0,1,3.19-2.64,2.64,2.64,0,0,1,2.29.23,1.79,1.79,0,0,1,.74,1,2.34,2.34,0,0,1,.09,1.32,4.08,4.08,0,0,1-1.63,2.27,11.14,11.14,0,0,1-4.69,1.74,1.19,1.19,0,0,0,.14.74,1.35,1.35,0,0,0,.72.64,2.54,2.54,0,0,0,1,.22,4.82,4.82,0,0,0,2.51-.85,5.35,5.35,0,0,0,2.07-2.51,0.82,0.82,0,0,1,1.09-.44,0.74,0.74,0,0,1,.43.43,0.86,0.86,0,0,1,0,.64,7.08,7.08,0,0,1-2.85,3.36,6,6,0,0,1-3.26,1A4.31,4.31,0,0,1,370.38,379.82ZM374,372a5.08,5.08,0,0,0-2.31,2,9,9,0,0,0-.74,1.16,9,9,0,0,0,2.94-1.16,2.45,2.45,0,0,0,1.16-1.39,0.55,0.55,0,0,0-.12-0.6,0.79,0.79,0,0,0-.44-0.1A2.12,2.12,0,0,0,374,372Z" transform="translate(-256.22 -207.38)"/><path class="cls-1" d="M378.49,379.41a0.73,0.73,0,0,1-.42-1c0-.06.16-0.41,0.37-1.05s0.45-1.44.7-2.41a14,14,0,0,0,.45-2.28,0.85,0.85,0,0,1,.3-0.54,0.8,0.8,0,0,1,.6-0.2,0.85,0.85,0,0,1,.54.3,0.8,0.8,0,0,1,.2.6q-0.07.62-.25,1.53a12.85,12.85,0,0,1,1.32-1.39,4.28,4.28,0,0,1,2.75-1.3,2.31,2.31,0,0,1,2.06.85,2.52,2.52,0,0,1,.25,1.92,12.21,12.21,0,0,1-.53,1.78q-0.28.79-.37,1.11a1.86,1.86,0,0,0-.07.39,3.47,3.47,0,0,0,.74-0.11,3.34,3.34,0,0,0,1.78-1.58,7.82,7.82,0,0,0,.76-1.46,0.77,0.77,0,0,1,.43-0.46,0.83,0.83,0,0,1,.64,0,0.77,0.77,0,0,1,.44.43,0.83,0.83,0,0,1,0,.64,2,2,0,0,1-.09.25,7.12,7.12,0,0,1-.32.66c-0.16.29-.32,0.56-0.49,0.82a5,5,0,0,1-2.78,2.31,2.35,2.35,0,0,1-2.41-.35,1.67,1.67,0,0,1-.3-1.67,15.54,15.54,0,0,1,.46-1.55,9.32,9.32,0,0,0,.49-1.5c0-.09,0-0.18,0-0.26s0-.14,0-0.19a0.56,0.56,0,0,0,0-.13,0.19,0.19,0,0,0,0-.07v0a1,1,0,0,0-.72-0.16q-1.74,0-5.53,5.81a0.8,0.8,0,0,1-.69.37A0.7,0.7,0,0,1,378.49,379.41Z" transform="translate(-256.22 -207.38)"/><path class="cls-1" d="M399.59,374.79a0.82,0.82,0,0,1,.43.46,0.77,0.77,0,0,1,0,.63,7.68,7.68,0,0,1-2.31,3,5.85,5.85,0,0,1-3.19,1.48h-0.25a2.49,2.49,0,0,1-2.25-1.23,4.68,4.68,0,0,1-.28-3.19,17.78,17.78,0,0,1,.9-3.2,0.73,0.73,0,0,1-.23,0,0.61,0.61,0,0,1-.6-0.76,1.46,1.46,0,0,1,.14-0.43,0.5,0.5,0,0,1,.28-0.24l0.3-.1,0.38,0h0.36a25,25,0,0,1,2.66-5.14,3.46,3.46,0,0,1,1.11-.92,1,1,0,0,1,1.16,0,0.93,0.93,0,0,1,.37,1.13,3,3,0,0,1-.39.83q-0.53.83-2.48,4.07l2.5-.07a0.81,0.81,0,0,1,.6.19,0.88,0.88,0,0,1,.3.55,0.81,0.81,0,0,1-.2.6,0.85,0.85,0,0,1-.54.3l-0.46,0-1.3,0-1.83,0h-0.42a19.17,19.17,0,0,0-1,3.4,3.12,3.12,0,0,0,0,2,1,1,0,0,0,1,.46,4.28,4.28,0,0,0,2.31-1.16,6.5,6.5,0,0,0,1.81-2.34,0.82,0.82,0,0,1,.45-0.43A0.87,0.87,0,0,1,399.59,374.79Z" transform="translate(-256.22 -207.38)"/><path class="cls-1" d="M401.14,378.9a0.8,0.8,0,0,1-.06-0.63,0.82,0.82,0,0,1,.4-0.47,0.76,0.76,0,0,1,.62-0.06,0.81,0.81,0,0,1,.49.4,2.22,2.22,0,0,0,.21.33,1.08,1.08,0,0,0,.44.24,2.69,2.69,0,0,0,.9.13,1.39,1.39,0,0,0,1.3-.51,3.6,3.6,0,0,0,.19-2.57,15,15,0,0,0-.62-2.27,10.88,10.88,0,0,1-.79,1.16,22.74,22.74,0,0,1-2.5,2.62,0.81,0.81,0,0,1-.59.22,0.78,0.78,0,0,1-.57-0.27,0.81,0.81,0,0,1-.22-0.59,0.78,0.78,0,0,1,.27-0.57,15.3,15.3,0,0,0,3.49-4.3,2,2,0,0,0,.21-0.46s0-.08,0-0.14a0.92,0.92,0,0,1,0-.14,1.26,1.26,0,0,1,.44-1.2,0.75,0.75,0,0,1,1.06,0,1.45,1.45,0,0,1,.23,1.58,4.16,4.16,0,0,0,.16.51q2.06,5.19.63,7.31a3,3,0,0,1-2.66,1.23A3.1,3.1,0,0,1,401.14,378.9Z" transform="translate(-256.22 -207.38)"/><path class="cls-1" d="M426.41,374.79a0.82,0.82,0,0,1,.43.46,0.77,0.77,0,0,1,0,.63,7.68,7.68,0,0,1-2.31,3,5.85,5.85,0,0,1-3.19,1.48h-0.25a2.49,2.49,0,0,1-2.25-1.23,4.69,4.69,0,0,1-.28-3.19,17.75,17.75,0,0,1,.9-3.2,0.73,0.73,0,0,1-.23,0,0.61,0.61,0,0,1-.6-0.76,1.45,1.45,0,0,1,.14-0.43,0.5,0.5,0,0,1,.28-0.24l0.3-.1,0.38,0h0.36a25,25,0,0,1,2.66-5.14,3.45,3.45,0,0,1,1.11-.92,1,1,0,0,1,1.16,0,0.93,0.93,0,0,1,.37,1.13,2.94,2.94,0,0,1-.39.83q-0.53.83-2.48,4.07l2.5-.07a0.81,0.81,0,0,1,.6.19,0.88,0.88,0,0,1,.3.55,0.81,0.81,0,0,1-.2.6,0.85,0.85,0,0,1-.54.3l-0.46,0-1.3,0-1.83,0h-0.42a19.12,19.12,0,0,0-1,3.4,3.11,3.11,0,0,0,0,2,1,1,0,0,0,1,.46,4.28,4.28,0,0,0,2.31-1.16,6.5,6.5,0,0,0,1.81-2.34,0.82,0.82,0,0,1,.45-0.43A0.87,0.87,0,0,1,426.41,374.79Z" transform="translate(-256.22 -207.38)"/><path class="cls-1" d="M427.78,379.48a3.18,3.18,0,0,1-.42-3.12,7.22,7.22,0,0,1,2.06-3.38,0.75,0.75,0,0,1,.6-0.23,3.24,3.24,0,0,1,.93-1.29,2.8,2.8,0,0,1,2.75-.86,2.43,2.43,0,0,1,1.55,2,5.11,5.11,0,0,1-.44,3,2.75,2.75,0,0,1-.16.35,3,3,0,0,0,1.5-1.11,0.79,0.79,0,0,1,.54-0.29,0.85,0.85,0,0,1,.61.18,0.82,0.82,0,0,1,.3.54,0.77,0.77,0,0,1-.19.61,4.73,4.73,0,0,1-2.06,1.57,3.9,3.9,0,0,1-1.9.23,10.81,10.81,0,0,1-1,1,6.52,6.52,0,0,1-2.57,1.39l-0.56,0A1.94,1.94,0,0,1,427.78,379.48Zm1.16-2.71a1.89,1.89,0,0,0,.07,1.62,0.85,0.85,0,0,0,.53.07,5,5,0,0,0,1.85-1l0.2-.16,0.17-.16a3.9,3.9,0,0,1-1.83-2.27A5.8,5.8,0,0,0,428.94,376.78Zm3.1-4.12a1.51,1.51,0,0,0-.53,1.64,2.39,2.39,0,0,0,1.34,1.53,4.09,4.09,0,0,0,.79-2.92,0.88,0.88,0,0,0-.46-0.76l-0.14,0A1.71,1.71,0,0,0,432,372.66Z" transform="translate(-256.22 -207.38)"/><path class="cls-1" d="M438.72,379.48a3.18,3.18,0,0,1-.42-3.12,7.22,7.22,0,0,1,2.06-3.38,0.76,0.76,0,0,1,.6-0.23,3.24,3.24,0,0,1,.92-1.29,2.79,2.79,0,0,1,2.75-.86,2.42,2.42,0,0,1,1.55,2,5.11,5.11,0,0,1-.44,3,2.74,2.74,0,0,1-.16.35,2.94,2.94,0,0,0,1.5-1.11,0.79,0.79,0,0,1,.54-0.29,0.84,0.84,0,0,1,.61.18,0.82,0.82,0,0,1,.3.54,0.77,0.77,0,0,1-.18.61,4.74,4.74,0,0,1-2.06,1.57,3.9,3.9,0,0,1-1.9.23,10.69,10.69,0,0,1-1,1,6.53,6.53,0,0,1-2.57,1.39l-0.56,0A1.94,1.94,0,0,1,438.72,379.48Zm1.16-2.71a1.89,1.89,0,0,0,.07,1.62,0.85,0.85,0,0,0,.53.07,5,5,0,0,0,1.85-1l0.2-.16,0.17-.16a3.9,3.9,0,0,1-1.83-2.27A5.81,5.81,0,0,0,439.88,376.78Zm3.1-4.12a1.51,1.51,0,0,0-.53,1.64,2.39,2.39,0,0,0,1.34,1.53,4.08,4.08,0,0,0,.79-2.92,0.88,0.88,0,0,0-.46-0.76l-0.14,0A1.7,1.7,0,0,0,443,372.66Z" transform="translate(-256.22 -207.38)"/><path class="cls-1" d="M301.86,250.8h-4.2v2.51h4.07v1.49h-4.07v3.5h4.2v1.48h-5.78V249.31h5.78v1.49Z" transform="translate(-256.22 -207.38)"/><path class="cls-1" d="M312.63,250.87l-1.28.76a2.21,2.21,0,0,0-.68-0.81,1.83,1.83,0,0,0-2,.15,1.16,1.16,0,0,0-.43.92,1.46,1.46,0,0,0,1.14,1.24l1,0.42a4.44,4.44,0,0,1,1.86,1.26,2.83,2.83,0,0,1,.59,1.82,3.2,3.2,0,0,1-1,2.39,3.3,3.3,0,0,1-2.41.95,3.21,3.21,0,0,1-2.25-.81,3.72,3.72,0,0,1-1.09-2.27l1.6-.35a2.72,2.72,0,0,0,.38,1.27,1.8,1.8,0,0,0,2.65.18,1.7,1.7,0,0,0,.49-1.25,1.78,1.78,0,0,0-.09-0.56,1.43,1.43,0,0,0-.26-0.47,2.11,2.11,0,0,0-.46-0.4,4.49,4.49,0,0,0-.68-0.35l-1-.42q-2.15-.91-2.15-2.66a2.52,2.52,0,0,1,.9-2,3.26,3.26,0,0,1,2.24-.8A3.14,3.14,0,0,1,312.63,250.87Z" transform="translate(-256.22 -207.38)"/><path class="cls-1" d="M320.67,250.8v9h-1.58v-9h-2.41v-1.49h6.39v1.49h-2.4Z" transform="translate(-256.22 -207.38)"/><path class="cls-1" d="M416.73,258.29h3.9v1.48h-7l3.63-4.4q0.54-.66.9-1.14a8.76,8.76,0,0,0,.55-0.81,2.26,2.26,0,0,0,.39-1.15,1.63,1.63,0,0,0-.52-1.23,1.77,1.77,0,0,0-1.27-.5q-1.59,0-1.82,1.88h-1.57q0.38-3.31,3.34-3.31a3.38,3.38,0,0,1,2.4.91,3,3,0,0,1,1,2.25,3.42,3.42,0,0,1-.45,1.67,8.43,8.43,0,0,1-.67,1c-0.3.39-.67,0.85-1.12,1.39Z" transform="translate(-256.22 -207.38)"/><path class="cls-1" d="M425.19,254.48a6.31,6.31,0,0,1,1.17-4,3,3,0,0,1,5.06,0,7.64,7.64,0,0,1,0,8.12,3.1,3.1,0,0,1-2.52,1.35,3.14,3.14,0,0,1-2.54-1.35A6.54,6.54,0,0,1,425.19,254.48Zm1.56,0a6.22,6.22,0,0,0,.6,2.9,1.61,1.61,0,0,0,3.07,0,6.94,6.94,0,0,0,0-5.69,1.61,1.61,0,0,0-3.07,0A5.79,5.79,0,0,0,426.75,254.48Z" transform="translate(-256.22 -207.38)"/><path class="cls-1" d="M438.64,250.8h-1.81l0.87-1.48h2.52v10.47h-1.58v-9Z" transform="translate(-256.22 -207.38)"/><path class="cls-1" d="M450.45,248.94l1.16,0.87-2.5,3.4,0.35,0h0.22a2.94,2.94,0,0,1,2.2,1,3.23,3.23,0,0,1,.92,2.32,3.51,3.51,0,0,1-3.49,3.49,3.53,3.53,0,0,1-2.5-1,3.21,3.21,0,0,1-1.05-2.39,4.5,4.5,0,0,1,1-2.63Zm0.81,7.61a2,2,0,1,0-2,2A2,2,0,0,0,451.26,256.56Z" transform="translate(-256.22 -207.38)"/><path class="cls-1" d="M360.5,238.34h14.27l-0.5-5.56H361Zm0,0" transform="translate(-256.22 -207.38)"/><path class="cls-1" d="M376.51,231l-8.33-14.34a22.88,22.88,0,0,0-.46-4c1.15-.78,2.7-1.81,4.12-1.81,1.61,0,2.23,2,4.16,1.24a17.86,17.86,0,0,0,3.75-2.18c-2.57,1-3.94,2-5.43-.35-1.67-2.69-5.21-2.35-7.93-1.89l-0.08-.24-0.8.27a31.92,31.92,0,0,1,1.81,8.57L358.78,231h17.73Zm0,0" transform="translate(-256.22 -207.38)"/><path class="cls-1" d="M380.11,241h-4.18v0.74a1.59,1.59,0,0,1-3.17,0V241h-3.53v0.74a1.59,1.59,0,0,1-3.17,0V241h-3.53v0.74a1.59,1.59,0,0,1-3.17,0V241h-4.18v4.12h24.93V241Zm0,0" transform="translate(-256.22 -207.38)"/><path class="cls-1" d="M353.56,227.29h-2.72V229a1.41,1.41,0,0,1-2.82,0v-1.72h-2.24V229a1.41,1.41,0,0,1-2.82,0v-1.72h-2.72v7.14h13.31v-7.14Zm0,0" transform="translate(-256.22 -207.38)"/><path class="cls-1" d="M395.89,227.29h-2.72V229a1.41,1.41,0,1,1-2.81,0v-1.72h-2.25V229a1.41,1.41,0,1,1-2.81,0v-1.72h-2.72v7.14h13.32v-7.14Zm0,0" transform="translate(-256.22 -207.38)"/><path class="cls-1" d="M395.19,258.17l-1.08-22.26h-9.75l-1,21.2-0.53,0-2.68-.13v-9.49H355.18V257l-2.37.12-0.31-6.43-0.72-14.77H342l-1.08,22.26c-5.75.77-9.26,1.8-9.26,2.92h72.76c0-1.12-3.5-2.14-9.26-2.92h0Zm0,0" transform="translate(-256.22 -207.38)"/></svg>