<?xml version="1.0" encoding="UTF-8" standalone="no"?>
<svg
   xmlns:dc="http://purl.org/dc/elements/1.1/"
   xmlns:cc="http://creativecommons.org/ns#"
   xmlns:rdf="http://www.w3.org/1999/02/22-rdf-syntax-ns#"
   xmlns:svg="http://www.w3.org/2000/svg"
   xmlns="http://www.w3.org/2000/svg"
   viewBox="0 0 793.70667 498.66666"
   height="498.66666"
   width="793.70667"
   xml:space="preserve"
   id="svg2"
   version="1.1"><metadata
     id="metadata8"><rdf:RDF><cc:Work
         rdf:about=""><dc:format>image/svg+xml</dc:format><dc:type
           rdf:resource="http://purl.org/dc/dcmitype/StillImage" /></cc:Work></rdf:RDF></metadata><defs
     id="defs6"><clipPath
       id="clipPath18"
       clipPathUnits="userSpaceOnUse"><path
         id="path16"
         d="M 0,374 H 595.28 V 0 H 0 Z" /></clipPath><clipPath
       id="clipPath26"
       clipPathUnits="userSpaceOnUse"><path
         id="path24"
         d="M 188.438,275.331 H 230.78 V 261.482 H 188.438 Z" /></clipPath><clipPath
       id="clipPath62"
       clipPathUnits="userSpaceOnUse"><path
         id="path60"
         d="m 368.884,275.725 h 50.754 v -13.977 h -50.754 z" /></clipPath><clipPath
       id="clipPath106"
       clipPathUnits="userSpaceOnUse"><path
         id="path104"
         d="M 100.167,136.112 H 506.224 V 66.7158 H 100.167 Z" /></clipPath><clipPath
       id="clipPath146"
       clipPathUnits="userSpaceOnUse"><path
         id="path144"
         d="M 99.0093,221.94 H 504.827 V 160.96 H 99.0093 Z" /></clipPath><clipPath
       id="clipPath242"
       clipPathUnits="userSpaceOnUse"><path
         id="path240"
         d="M 0,374 H 595.28 V 0 H 0 Z" /></clipPath><clipPath
       id="clipPath276"
       clipPathUnits="userSpaceOnUse"><path
         id="path274"
         d="M 155.254,53.8746 H 447.955 V 13.2372 H 155.254 Z" /></clipPath></defs><g
     transform="matrix(1.3333333,0,0,-1.3333333,0,498.66667)"
     id="g10"><g
       id="g12"><g
         clip-path="url(#clipPath18)"
         id="g14"><g
           id="g20"><g
             id="g22" /><g
             id="g54"><g
               style="opacity:0.89999402"
               id="g52"
               clip-path="url(#clipPath26)"><g
                 id="g30"
                 transform="translate(197.1575,274.3487)"><path
                   id="path28"
                   style="fill:#1d1d1d;fill-opacity:1;fill-rule:nonzero;stroke:none"
                   d="m 0,0 c 0.053,-0.177 0.04,-0.37 -0.068,-0.517 -0.161,-0.218 -0.46,-0.268 -0.728,-0.299 -2.005,-0.233 -4.022,-0.354 -6.04,-0.361 -0.061,-1.008 -0.025,-2.022 0.108,-3.023 0.027,-0.2 0.063,-0.412 0.198,-0.563 0.237,-0.263 0.653,-0.221 1.005,-0.182 1.029,0.116 2.081,0.022 3.074,-0.273 0.288,-0.086 0.605,-0.221 0.705,-0.504 0.105,-0.295 -0.089,-0.63 -0.359,-0.788 -0.271,-0.158 -0.596,-0.183 -0.909,-0.201 -1.056,-0.062 -2.114,-0.095 -3.173,-0.1 -0.075,0 -0.157,-0.003 -0.213,-0.053 -0.054,-0.047 -0.069,-0.123 -0.081,-0.193 -0.14,-0.878 -0.134,-1.78 0.017,-2.656 0.054,-0.317 0.155,-0.667 0.437,-0.82 0.154,-0.083 0.336,-0.091 0.511,-0.093 1.582,-0.018 3.161,0.249 4.744,0.005 0.297,-0.046 0.599,-0.111 0.852,-0.274 0.253,-0.162 0.45,-0.441 0.439,-0.742 -0.01,-0.298 -0.221,-0.56 -0.479,-0.709 -0.258,-0.15 -0.558,-0.206 -0.852,-0.252 -2.124,-0.334 -4.308,-0.285 -6.414,0.144 -0.139,0.028 -0.285,0.062 -0.391,0.155 -0.152,0.133 -0.188,0.352 -0.214,0.552 -0.463,3.577 -0.742,7.178 -0.836,10.784 -0.011,0.452 -0.006,0.948 0.284,1.295 0.322,0.385 0.879,0.453 1.38,0.486 1.283,0.085 2.569,0.122 3.855,0.112 0.757,-0.006 1.522,-0.029 2.249,-0.238 0.277,-0.08 0.558,-0.195 0.746,-0.413 C -0.083,0.199 -0.031,0.102 0,0" /></g><g
                 id="g34"
                 transform="translate(197.1575,274.3487)"><path
                   id="path32"
                   style="fill:none;stroke:#1d1d1d;stroke-width:0.1;stroke-linecap:butt;stroke-linejoin:miter;stroke-miterlimit:10;stroke-dasharray:none;stroke-opacity:1"
                   d="m 0,0 c 0.053,-0.177 0.04,-0.37 -0.068,-0.517 -0.161,-0.218 -0.46,-0.268 -0.728,-0.299 -2.005,-0.233 -4.022,-0.354 -6.04,-0.361 -0.061,-1.008 -0.025,-2.022 0.108,-3.023 0.027,-0.2 0.063,-0.412 0.198,-0.563 0.237,-0.263 0.653,-0.221 1.005,-0.182 1.029,0.116 2.081,0.022 3.074,-0.273 0.288,-0.086 0.605,-0.221 0.705,-0.504 0.105,-0.295 -0.089,-0.63 -0.359,-0.788 -0.271,-0.158 -0.596,-0.183 -0.909,-0.201 -1.056,-0.062 -2.114,-0.095 -3.173,-0.1 -0.075,0 -0.157,-0.003 -0.213,-0.053 -0.054,-0.047 -0.069,-0.123 -0.081,-0.193 -0.14,-0.878 -0.134,-1.78 0.017,-2.656 0.054,-0.317 0.155,-0.667 0.437,-0.82 0.154,-0.083 0.336,-0.091 0.511,-0.093 1.582,-0.018 3.161,0.249 4.744,0.005 0.297,-0.046 0.599,-0.111 0.852,-0.274 0.253,-0.162 0.45,-0.441 0.439,-0.742 -0.01,-0.298 -0.221,-0.56 -0.479,-0.709 -0.258,-0.15 -0.558,-0.206 -0.852,-0.252 -2.124,-0.334 -4.308,-0.285 -6.414,0.144 -0.139,0.028 -0.285,0.062 -0.391,0.155 -0.152,0.133 -0.188,0.352 -0.214,0.552 -0.463,3.577 -0.742,7.178 -0.836,10.784 -0.011,0.452 -0.006,0.948 0.284,1.295 0.322,0.385 0.879,0.453 1.38,0.486 1.283,0.085 2.569,0.122 3.855,0.112 0.757,-0.006 1.522,-0.029 2.249,-0.238 0.277,-0.08 0.558,-0.195 0.746,-0.413 C -0.083,0.199 -0.031,0.102 0,0 Z" /></g><g
                 id="g38"
                 transform="translate(211.025,265.0559)"><path
                   id="path36"
                   style="fill:#1d1d1d;fill-opacity:1;fill-rule:nonzero;stroke:none"
                   d="m 0,0 c -0.02,1.121 -1.496,2.224 -2.267,2.811 -1.217,0.928 -2.501,2.335 -2.447,3.973 0.086,2.638 3.073,3.79 5.023,2.135 C 1.494,7.923 1.968,7.209 1.73,6.777 1.332,6.161 0.636,6.28 -0.36,7.14 -1.039,7.725 -2.023,8.349 -2.68,7.32 -2.954,7.011 -3.031,6.615 -2.914,6.133 -2.778,5.672 -2.227,5.06 -1.264,4.303 0.095,3.239 0.981,2.327 1.395,1.573 1.651,1.107 1.78,0.627 1.78,0.13 1.779,-1.05 1.196,-2.233 0.152,-2.822 c -0.641,-0.362 -1.393,-0.504 -2.129,-0.48 -0.794,0.025 -1.591,0.241 -2.248,0.687 -0.491,0.333 -1.059,1.106 -1.245,1.661 -0.341,1.017 0.373,1.279 1.146,0.562 0.528,-0.489 1.132,-0.925 1.83,-1.102 0.698,-0.177 1.502,-0.055 2.016,0.449 C -0.131,-0.705 0.006,-0.352 0,0" /></g><g
                 id="g42"
                 transform="translate(211.025,265.0559)"><path
                   id="path40"
                   style="fill:none;stroke:#1d1d1d;stroke-width:0.1;stroke-linecap:butt;stroke-linejoin:miter;stroke-miterlimit:10;stroke-dasharray:none;stroke-opacity:1"
                   d="m 0,0 c -0.02,1.121 -1.496,2.224 -2.267,2.811 -1.217,0.928 -2.501,2.335 -2.447,3.973 0.086,2.638 3.073,3.79 5.023,2.135 C 1.494,7.923 1.968,7.209 1.73,6.777 1.332,6.161 0.636,6.28 -0.36,7.14 -1.039,7.725 -2.023,8.349 -2.68,7.32 -2.954,7.011 -3.031,6.615 -2.914,6.133 -2.778,5.672 -2.227,5.06 -1.264,4.303 0.095,3.239 0.981,2.327 1.395,1.573 1.651,1.107 1.78,0.627 1.78,0.13 1.779,-1.05 1.196,-2.233 0.152,-2.822 c -0.641,-0.362 -1.393,-0.504 -2.129,-0.48 -0.794,0.025 -1.591,0.241 -2.248,0.687 -0.491,0.333 -1.059,1.106 -1.245,1.661 -0.341,1.017 0.373,1.279 1.146,0.562 0.528,-0.489 1.132,-0.925 1.83,-1.102 0.698,-0.177 1.502,-0.055 2.016,0.449 C -0.131,-0.705 0.006,-0.352 0,0 Z" /></g><g
                 id="g46"
                 transform="translate(225.0056,268.6116)"><path
                   id="path44"
                   style="fill:#1d1d1d;fill-opacity:1;fill-rule:nonzero;stroke:none"
                   d="m 0,0 c 0,1.738 -0.059,3.586 -0.18,3.862 -0.101,0.239 -0.416,0.362 -0.951,0.362 h -0.466 c -0.45,0 -0.85,0.066 -1.209,0.204 -0.344,0.119 -0.562,0.294 -0.651,0.517 -0.034,0.07 -0.048,0.137 -0.048,0.207 0,0.154 0.048,0.301 0.155,0.435 0.176,0.209 1.642,0.311 4.422,0.311 2.792,0 4.274,-0.114 4.45,-0.334 C 5.653,5.391 5.724,5.229 5.724,5.074 5.724,4.797 5.474,4.557 4.975,4.351 4.464,4.161 3.784,4.06 2.94,4.042 H 1.68 C 1.66,1.858 1.738,-1.179 1.91,-3.378 2.029,-4.854 2.021,-5.722 1.882,-5.979 1.747,-6.221 1.516,-6.342 1.195,-6.342 0.868,-6.342 0.634,-6.221 0.486,-5.979 0.165,-5.344 0,-3.35 0,0" /></g><g
                 id="g50"
                 transform="translate(225.0056,268.6116)"><path
                   id="path48"
                   style="fill:none;stroke:#1d1d1d;stroke-width:0.1;stroke-linecap:butt;stroke-linejoin:miter;stroke-miterlimit:10;stroke-dasharray:none;stroke-opacity:1"
                   d="m 0,0 c 0,1.738 -0.059,3.586 -0.18,3.862 -0.101,0.239 -0.416,0.362 -0.951,0.362 h -0.466 c -0.45,0 -0.85,0.066 -1.209,0.204 -0.344,0.119 -0.562,0.294 -0.651,0.517 -0.034,0.07 -0.048,0.137 -0.048,0.207 0,0.154 0.048,0.301 0.155,0.435 0.176,0.209 1.642,0.311 4.422,0.311 2.792,0 4.274,-0.114 4.45,-0.334 C 5.653,5.391 5.724,5.229 5.724,5.074 5.724,4.797 5.474,4.557 4.975,4.351 4.464,4.161 3.784,4.06 2.94,4.042 H 1.68 C 1.66,1.858 1.738,-1.179 1.91,-3.378 2.029,-4.854 2.021,-5.722 1.882,-5.979 1.747,-6.221 1.516,-6.342 1.195,-6.342 0.868,-6.342 0.634,-6.221 0.486,-5.979 0.165,-5.344 0,-3.35 0,0 Z" /></g></g></g></g><g
           id="g56"><g
             id="g58" /><g
             id="g98"><g
               style="opacity:0.89999402"
               id="g96"
               clip-path="url(#clipPath62)"><g
                 id="g66"
                 transform="translate(375.9051,271.1827)"><path
                   id="path64"
                   style="fill:#1d1d1d;fill-opacity:1;fill-rule:nonzero;stroke:none"
                   d="m 0,0 c -0.005,-0.199 -0.019,-0.397 -0.039,-0.593 -0.119,-1.137 -0.443,-2.251 -0.943,-3.279 -0.55,-1.131 -2.349,-2.692 -2.103,-2.993 0.011,-0.24 1.62,-0.197 2.473,-0.39 0.629,-0.143 1.212,-0.476 1.113,-0.824 -0.092,-0.322 -1.035,-0.439 -1.486,-0.495 -1.755,-0.217 -3.124,-0.17 -4.843,0.072 -0.536,0.075 -0.869,0.232 -0.888,0.772 -0.018,0.514 0.333,0.756 0.647,1.037 1.839,1.648 3.678,3.565 4.093,6 0.114,0.664 0.108,1.374 -0.185,1.982 C -2.454,1.896 -3.085,2.372 -3.758,2.331 -4.679,2.274 -5.305,1.352 -6.178,1.05 -6.395,0.974 -6.66,0.949 -6.832,1.102 -7.079,1.323 -6.956,1.73 -6.786,2.014 -6.164,3.051 -5.089,3.829 -3.892,3.995 -2.695,4.161 -1.405,3.671 -0.696,2.692 -0.142,1.926 0.026,0.956 0,0" /></g><g
                 id="g70"
                 transform="translate(375.9051,271.1827)"><path
                   id="path68"
                   style="fill:none;stroke:#1d1d1d;stroke-width:0.1;stroke-linecap:butt;stroke-linejoin:miter;stroke-miterlimit:10;stroke-dasharray:none;stroke-opacity:1"
                   d="m 0,0 c -0.005,-0.199 -0.019,-0.397 -0.039,-0.593 -0.119,-1.137 -0.443,-2.251 -0.943,-3.279 -0.55,-1.131 -2.349,-2.692 -2.103,-2.993 0.011,-0.24 1.62,-0.197 2.473,-0.39 0.629,-0.143 1.212,-0.476 1.113,-0.824 -0.092,-0.322 -1.035,-0.439 -1.486,-0.495 -1.755,-0.217 -3.124,-0.17 -4.843,0.072 -0.536,0.075 -0.869,0.232 -0.888,0.772 -0.018,0.514 0.333,0.756 0.647,1.037 1.839,1.648 3.678,3.565 4.093,6 0.114,0.664 0.108,1.374 -0.185,1.982 C -2.454,1.896 -3.085,2.372 -3.758,2.331 -4.679,2.274 -5.305,1.352 -6.178,1.05 -6.395,0.974 -6.66,0.949 -6.832,1.102 -7.079,1.323 -6.956,1.73 -6.786,2.014 -6.164,3.051 -5.089,3.829 -3.892,3.995 -2.695,4.161 -1.405,3.671 -0.696,2.692 -0.142,1.926 0.026,0.956 0,0 Z" /></g><g
                 id="g74"
                 transform="translate(389.3449,273.9386)"><path
                   id="path72"
                   style="fill:#1d1d1d;fill-opacity:1;fill-rule:nonzero;stroke:none"
                   d="m 0,0 c -1.014,-0.026 -1.77,-0.807 -2.22,-1.649 -0.767,-1.436 -0.827,-3.106 -0.69,-4.694 0.144,-1.665 0.76,-5.489 3.373,-3.598 0.609,0.44 0.99,1.132 1.232,1.842 0.598,1.755 0.457,3.656 0.225,5.463 C 1.772,-1.485 1.468,0.037 0,0 m 3.798,-4.705 c 0,-1.537 -0.04,-2.52 -0.111,-2.952 C 3.63,-8.071 3.425,-8.644 3.069,-9.373 2.597,-10.425 2.05,-11.146 1.434,-11.54 c -0.505,-0.337 -1.145,-0.508 -1.91,-0.508 -0.154,0 -0.297,0.01 -0.451,0.032 -0.938,0.073 -1.615,0.27 -2.028,0.589 -0.412,0.336 -0.784,0.972 -1.123,1.912 -0.317,0.939 -0.495,2.147 -0.533,3.627 v 0.422 c 0,1.298 0.119,2.402 0.365,3.319 0.204,0.771 0.57,1.494 1.093,2.17 0.531,0.691 1.057,1.159 1.609,1.404 0.504,0.204 1.149,0.31 1.938,0.31 0.787,0 1.409,-0.187 1.858,-0.563 0.599,-0.505 1.001,-1.171 1.209,-1.997 0.226,-0.825 0.337,-2.118 0.337,-3.882" /></g><g
                 id="g78"
                 transform="translate(389.3449,273.9386)"><path
                   id="path76"
                   style="fill:none;stroke:#1d1d1d;stroke-width:0.1;stroke-linecap:butt;stroke-linejoin:miter;stroke-miterlimit:10;stroke-dasharray:none;stroke-opacity:1"
                   d="m 0,0 c -1.014,-0.026 -1.77,-0.807 -2.22,-1.649 -0.767,-1.436 -0.827,-3.106 -0.69,-4.694 0.144,-1.665 0.76,-5.489 3.373,-3.598 0.609,0.44 0.99,1.132 1.232,1.842 0.598,1.755 0.457,3.656 0.225,5.463 C 1.772,-1.485 1.468,0.037 0,0 Z m 3.798,-4.705 c 0,-1.537 -0.04,-2.52 -0.111,-2.952 C 3.63,-8.071 3.425,-8.644 3.069,-9.373 2.597,-10.425 2.05,-11.146 1.434,-11.54 c -0.505,-0.337 -1.145,-0.508 -1.91,-0.508 -0.154,0 -0.297,0.01 -0.451,0.032 -0.938,0.073 -1.615,0.27 -2.028,0.589 -0.412,0.336 -0.784,0.972 -1.123,1.912 -0.317,0.939 -0.495,2.147 -0.533,3.627 v 0.422 c 0,1.298 0.119,2.402 0.365,3.319 0.204,0.771 0.57,1.494 1.093,2.17 0.531,0.691 1.057,1.159 1.609,1.404 0.504,0.204 1.149,0.31 1.938,0.31 0.787,0 1.409,-0.187 1.858,-0.563 0.599,-0.505 1.001,-1.171 1.209,-1.997 0.226,-0.825 0.337,-2.118 0.337,-3.882 z" /></g><g
                 id="g82"
                 transform="translate(401.8705,274.5199)"><path
                   id="path80"
                   style="fill:#1d1d1d;fill-opacity:1;fill-rule:nonzero;stroke:none"
                   d="m 0,0 c 0.075,0.113 0.186,0.168 0.339,0.168 0.053,0 0.113,-0.009 0.164,-0.025 0.587,-0.115 0.979,-2.475 1.183,-7.088 0.042,-0.819 0.072,-1.64 0.078,-2.461 0.005,-0.6 0.106,-3.886 -1.284,-2.522 -0.187,0.191 -0.341,2.188 -0.454,5.994 -0.054,2.065 -0.081,3.592 -0.081,4.585 0,0.806 0.017,1.256 0.055,1.349" /></g><g
                 id="g86"
                 transform="translate(401.8705,274.5199)"><path
                   id="path84"
                   style="fill:none;stroke:#1d1d1d;stroke-width:0.1;stroke-linecap:butt;stroke-linejoin:miter;stroke-miterlimit:10;stroke-dasharray:none;stroke-opacity:1"
                   d="m 0,0 c 0.075,0.113 0.186,0.168 0.339,0.168 0.053,0 0.113,-0.009 0.164,-0.025 0.587,-0.115 0.979,-2.475 1.183,-7.088 0.042,-0.819 0.072,-1.64 0.078,-2.461 0.005,-0.6 0.106,-3.886 -1.284,-2.522 -0.187,0.191 -0.341,2.188 -0.454,5.994 -0.054,2.065 -0.081,3.592 -0.081,4.585 0,0.806 0.017,1.256 0.055,1.349 z" /></g><g
                 id="g90"
                 transform="translate(413.6159,266.7315)"><path
                   id="path88"
                   style="fill:#1d1d1d;fill-opacity:1;fill-rule:nonzero;stroke:none"
                   d="m 0,0 c 0,-0.864 0.093,-1.474 0.281,-1.831 0.169,-0.357 0.47,-0.646 0.896,-0.872 0.4,-0.204 0.753,-0.307 1.074,-0.307 0.337,0 0.632,0.103 0.897,0.307 0.565,0.395 0.892,1.126 0.989,2.198 v 0.447 C 4.137,0.277 4.107,0.553 4.05,0.759 3.937,1.056 3.782,1.341 3.572,1.601 3.214,2.09 2.784,2.332 2.278,2.332 1.884,2.332 1.452,2.193 0.985,1.91 0.682,1.761 0.45,1.51 0.281,1.151 0.131,0.794 0.038,0.412 0,0 M -2.111,0.085 C -2.065,3.381 0.866,6.854 3.817,8.037 4.199,8.19 4.741,8.264 4.93,7.898 5.114,7.539 4.76,7.148 4.442,6.899 3.563,6.212 2.684,5.525 1.805,4.838 1.607,4.683 1.387,4.433 1.513,4.215 1.599,4.067 1.797,4.039 1.967,4.02 2.952,3.909 3.924,3.531 4.649,2.856 5.988,1.608 6.276,-0.504 5.67,-2.231 5.331,-3.2 4.709,-4.11 3.799,-4.585 c -1.294,-0.677 -2.974,-0.319 -4.07,0.646 -1.327,1.17 -1.86,2.58 -1.84,4.024" /></g><g
                 id="g94"
                 transform="translate(413.6159,266.7315)"><path
                   id="path92"
                   style="fill:none;stroke:#1d1d1d;stroke-width:0.1;stroke-linecap:butt;stroke-linejoin:miter;stroke-miterlimit:10;stroke-dasharray:none;stroke-opacity:1"
                   d="m 0,0 c 0,-0.864 0.093,-1.474 0.281,-1.831 0.169,-0.357 0.47,-0.646 0.896,-0.872 0.4,-0.204 0.753,-0.307 1.074,-0.307 0.337,0 0.632,0.103 0.897,0.307 0.565,0.395 0.892,1.126 0.989,2.198 v 0.447 C 4.137,0.277 4.107,0.553 4.05,0.759 3.937,1.056 3.782,1.341 3.572,1.601 3.214,2.09 2.784,2.332 2.278,2.332 1.884,2.332 1.452,2.193 0.985,1.91 0.682,1.761 0.45,1.51 0.281,1.151 0.131,0.794 0.038,0.412 0,0 Z M -2.111,0.085 C -2.065,3.381 0.866,6.854 3.817,8.037 4.199,8.19 4.741,8.264 4.93,7.898 5.114,7.539 4.76,7.148 4.442,6.899 3.563,6.212 2.684,5.525 1.805,4.838 1.607,4.683 1.387,4.433 1.513,4.215 1.599,4.067 1.797,4.039 1.967,4.02 2.952,3.909 3.924,3.531 4.649,2.856 5.988,1.608 6.276,-0.504 5.67,-2.231 5.331,-3.2 4.709,-4.11 3.799,-4.585 c -1.294,-0.677 -2.974,-0.319 -4.07,0.646 -1.327,1.17 -1.86,2.58 -1.84,4.024 z" /></g></g></g></g><g
           id="g100"><g
             id="g102" /><g
             id="g138"><g
               style="opacity:0.89999402"
               id="g136"
               clip-path="url(#clipPath106)"><g
                 id="g110"
                 transform="translate(109.2814,117.2731)"><path
                   id="path108"
                   style="fill:#1d1d1d;fill-opacity:1;fill-rule:nonzero;stroke:none"
                   d="m 0,0 c -0.047,-0.632 -0.032,-1.274 0.003,-1.905 0.129,-2.359 0.514,-4.704 1.144,-6.98 0.198,-0.713 0.441,-1.455 0.99,-1.952 0.605,-0.549 1.464,-0.694 2.272,-0.816 3.907,-0.589 7.815,-1.179 11.722,-1.768 1.422,-0.215 2.885,-0.444 4.116,-1.188 1.231,-0.743 2.184,-2.139 1.965,-3.56 -0.37,-2.391 -3.399,-3.156 -5.815,-3.295 -4.95,-0.285 -9.921,-0.214 -14.86,0.214 0.225,-7.18 -0.025,-14.375 -0.749,-21.522 -0.135,-1.333 -0.299,-2.706 -0.953,-3.875 -0.655,-1.169 -1.927,-2.096 -3.257,-1.937 -2.386,0.284 -3.096,3.36 -3.217,5.759 -0.81,16.107 -1.619,32.213 -2.429,48.319 -0.1,1.987 -0.149,4.154 1.037,5.753 1.324,1.783 3.744,2.278 5.946,2.568 10.614,1.397 21.452,1.085 31.968,-0.921 1.252,-0.239 2.763,-0.766 2.933,-2.03 C 32.975,9.686 31.819,8.776 30.754,8.247 22.575,4.177 14.237,7.404 5.849,5.937 3.618,5.547 1.413,4.276 0.505,2.202 0.201,1.505 0.056,0.76 0,0" /></g><g
                 id="g114"
                 transform="translate(185.4791,122.2315)"><path
                   id="path112"
                   style="fill:#1d1d1d;fill-opacity:1;fill-rule:nonzero;stroke:none"
                   d="m 0,0 c -4.375,1.501 -9.363,1.317 -13.611,-0.572 -12.141,-5.4 -14.624,-20.675 -10.712,-32.17 1.846,-5.424 5.661,-10.359 10.932,-12.605 7.965,-3.394 17.868,0.331 22.824,7.43 4.956,7.099 5.368,16.725 2.458,24.88 C 10.514,-9.179 8.387,-5.495 5.224,-2.892 3.671,-1.614 1.893,-0.649 0,0 m 21.572,-34.486 c -0.731,-2.758 -1.836,-5.407 -3.404,-7.846 -4.246,-6.604 -11.542,-10.912 -19.232,-12.498 -5.321,-1.097 -10.983,-0.963 -16.04,1.024 -7.253,2.851 -12.7,9.356 -15.405,16.666 -6.35,17.161 -0.684,40.399 18.402,46.308 10.279,3.183 22.387,-0.279 29.151,-8.648 4.168,-5.157 6.235,-11.73 7.17,-18.295 0.782,-5.489 0.789,-11.31 -0.642,-16.711" /></g><g
                 id="g118"
                 transform="translate(238.8255,127.8095)"><path
                   id="path116"
                   style="fill:#1d1d1d;fill-opacity:1;fill-rule:nonzero;stroke:none"
                   d="m 0,0 c -1.616,-0.51 -2.622,-1.893 -2.544,-4.15 0.213,-6.136 1.264,-12.418 1.81,-18.55 0.055,-0.619 0.126,-1.278 0.516,-1.762 0.678,-0.84 1.959,-0.774 3.023,-0.592 4.514,0.773 9.372,2.66 11.301,6.814 0.976,2.102 1.052,4.501 0.987,6.817 -0.063,2.248 -0.271,4.585 -1.42,6.518 -1.125,1.891 -3.058,3.199 -5.126,3.95 C 6.479,-0.204 4.265,0.039 2.071,0.204 1.31,0.261 0.611,0.193 0,0 m 20.871,-58.225 c -0.026,0.035 -0.051,0.069 -0.076,0.104 -1.877,2.599 -2.796,5.751 -4.221,8.623 -3.182,6.411 -9.063,11.427 -15.896,13.558 -0.443,-5.053 -0.886,-10.106 -1.329,-15.159 -0.146,-1.666 -0.306,-3.383 -1.092,-4.859 -0.786,-1.475 -2.369,-2.66 -4.027,-2.452 -1.454,0.182 -2.615,1.386 -3.171,2.741 -1.358,3.31 -0.776,7.781 -0.849,11.267 -0.098,4.627 -0.224,9.253 -0.36,13.879 -0.264,9.042 -0.568,18.083 -0.779,27.126 -0.063,2.699 -0.066,5.603 1.475,7.819 1.815,2.611 5.251,3.507 8.419,3.774 C 5.94,8.782 13.441,7 18.292,1.954 c 4.402,-4.578 6.077,-11.393 5.078,-17.665 -0.998,-6.271 -4.459,-11.985 -9.005,-16.42 5.449,-3.369 9.588,-8.799 11.393,-14.945 1.039,-3.54 1.246,-7.612 -0.794,-10.686 -0.641,-0.965 -1.756,-1.869 -2.854,-1.504 -0.521,0.173 -0.909,0.598 -1.239,1.041" /></g><g
                 id="g122"
                 transform="translate(353.7778,67.093)"><path
                   id="path120"
                   style="fill:#1d1d1d;fill-opacity:1;fill-rule:nonzero;stroke:none"
                   d="m 0,0 c -1.155,0 -3.949,2.615 -8.377,7.854 -5.334,6.649 -10.075,12.108 -14.244,16.362 -3.727,3.994 -6.164,6.299 -7.323,6.926 -1.066,0.619 -2.04,0.48 -2.924,-0.4 -0.797,-0.713 -1.332,-1.912 -1.601,-3.596 -0.26,-1.595 -0.396,-4.921 -0.396,-9.98 0,-6.481 -0.311,-10.78 -0.93,-12.904 -0.62,-2.134 -1.818,-3.196 -3.594,-3.196 -2.486,0 -3.994,1.375 -4.525,4.121 -0.448,2.839 -0.662,11.492 -0.662,25.955 0,7.89 0.036,13.834 0.131,17.83 0.083,3.989 0.309,7.228 0.672,9.711 0.346,2.574 0.794,4.125 1.323,4.658 0.533,0.618 1.375,0.84 2.532,0.666 2.477,-0.268 3.765,-5.722 3.854,-16.37 0.184,-4.167 0.485,-6.253 0.937,-6.253 1.502,0.802 3.81,2.485 6.919,5.054 3.105,2.574 6.562,5.5 10.374,8.784 3.81,3.374 6.124,5.369 6.921,5.991 3.814,3.192 6.612,4.789 8.385,4.789 1.329,0 2.13,-0.799 2.395,-2.393 v -0.268 c 0.531,-0.89 -0.711,-2.972 -3.727,-6.251 -3.017,-3.376 -6.964,-7.456 -11.846,-12.245 -4.785,-4.616 -7.448,-7.14 -7.979,-7.584 1.415,-1.244 3.543,-3.061 6.386,-5.455 3.991,-3.637 8.561,-8.698 13.705,-15.169 C 1.641,10.247 4.303,6.299 4.387,4.793 4.387,3.37 3.992,2.219 3.196,1.333 2.308,0.442 1.244,0 0,0" /></g><g
                 id="g126"
                 transform="translate(380.2881,134.5595)"><path
                   id="path124"
                   style="fill:#1d1d1d;fill-opacity:1;fill-rule:nonzero;stroke:none"
                   d="m 0,0 c 1.991,3.109 5.531,-0.251 6.043,-2.663 0.608,-2.927 0.913,-12.374 0.913,-28.339 0,-1.157 0,-2.356 0,-3.599 C 6.926,-41.111 6.884,-47.626 6.64,-54.132 6.512,-57.542 7.74,-64.14 2.625,-64.14 H 2.496 c -1.224,0 -2.229,0.486 -3.021,1.466 -1.312,1.681 -1.966,10.509 -1.966,26.481 v 4.523 C -2.314,-12.877 -1.483,-2.324 0,0" /></g><g
                 id="g130"
                 transform="translate(414.4345,121.2587)"><path
                   id="path128"
                   style="fill:#1d1d1d;fill-opacity:1;fill-rule:nonzero;stroke:none"
                   d="m 0,0 c -0.212,-1.255 -0.147,-2.573 -0.072,-3.855 0.723,-12.47 1.74,-24.923 3.049,-37.346 0.038,-0.358 0.089,-0.745 0.339,-1.004 0.311,-0.321 0.814,-0.334 1.261,-0.317 16.365,0.598 26.178,7.751 23.025,24.698 -0.897,4.821 -2.251,9.627 -4.783,13.827 -2.531,4.2 -6.348,7.77 -11.021,9.259 C 7.628,6.59 2.132,5.593 0.441,1.557 0.23,1.054 0.09,0.533 0,0 m 4.551,-52.281 c -3.271,-0.033 -6.243,0.643 -8.007,2.711 -1.361,1.595 -1.611,3.828 -1.791,5.917 -0.864,10.053 -1.443,20.13 -1.737,30.216 -0.153,5.252 -0.229,10.506 -0.227,15.76 0.002,6.899 0.438,11.756 8.417,12.275 6.37,0.413 13.072,0.354 18.714,-2.632 4.648,-2.46 8.123,-6.692 10.823,-11.205 4.377,-7.315 7.039,-15.711 7.233,-24.234 0.154,-6.808 -1.455,-14.005 -6.165,-18.924 -3.609,-3.769 -8.643,-5.818 -13.653,-7.281 -3.189,-0.931 -8.73,-2.555 -13.607,-2.603" /></g><g
                 id="g134"
                 transform="translate(496.9105,84.6577)"><path
                   id="path132"
                   style="fill:#1d1d1d;fill-opacity:1;fill-rule:nonzero;stroke:none"
                   d="m 0,0 c 0.009,3.701 -2.749,7.031 -5.591,9.557 -4.32,3.839 -9.245,7.022 -13.125,11.305 -6.8,7.506 -8.227,19.976 0.801,26.563 3.441,2.51 7.993,3.432 12.139,2.459 4.988,-1.171 9.005,-4.808 12.451,-8.6 1.684,-1.852 3.373,-4.531 2.06,-6.662 -1.088,-1.764 -3.675,-1.926 -5.599,-1.155 -2.383,0.955 -4.188,2.914 -6.16,4.558 -1.972,1.644 -4.449,3.072 -6.977,2.624 -4.083,-0.724 -5.81,-6.118 -4.319,-9.988 1.491,-3.869 5.034,-6.498 8.362,-8.972 C -2.18,18.881 1.581,15.956 4.502,12.265 7.424,8.574 9.468,4 9.305,-0.704 9.127,-5.827 6.248,-10.7 2.058,-13.654 c -4.19,-2.954 -9.566,-4.038 -14.644,-3.339 -7.394,1.019 -14.443,6.313 -16.031,13.606 -0.494,2.268 0.773,4.364 3.333,3.488 1.089,-0.373 1.959,-1.185 2.816,-1.952 3.431,-3.073 7.457,-5.869 12.048,-6.241 4.591,-0.373 9.699,2.514 10.347,7.074 C -0.025,-0.676 -0.001,-0.337 0,0" /></g></g></g></g><g
           id="g140"><g
             id="g142" /><g
             id="g230"><g
               style="opacity:0.89999402"
               id="g228"
               clip-path="url(#clipPath146)"><g
                 id="g150"
                 transform="translate(123.9064,164.3934)"><path
                   id="path148"
                   style="fill:#1d1d1d;fill-opacity:1;fill-rule:nonzero;stroke:none"
                   d="m 0,0 c -0.095,-0.7 -0.282,-1.332 -0.631,-1.812 -2.713,-3.722 -4.721,6.085 -4.999,7.311 -1.574,6.927 -2.599,13.988 -3.599,21.016 -0.4,2.863 -0.642,4.515 -0.745,4.959 -0.939,-6.737 -1.652,-12.55 -2.146,-17.454 -0.493,-4.899 -0.745,-9.754 -0.745,-14.564 0,-0.543 -0.222,-1.033 -0.681,-1.462 -0.456,-0.434 -0.955,-0.648 -1.498,-0.648 -1.853,0 -2.774,1.926 -2.774,5.773 0,2.372 -1.044,11.026 -3.131,25.968 -0.667,4.785 -1.347,9.57 -2.085,14.345 -0.363,2.342 -0.917,4.647 -1.333,6.979 -0.351,1.96 -1.354,4.324 1.295,4.771 1.124,0.19 1.314,0.106 2.022,-0.719 1.378,-1.603 1.632,-4.962 1.988,-6.924 0.951,-5.255 1.765,-11.629 2.445,-19.118 0.677,-7.488 1.028,-11.282 1.056,-11.379 0.073,0.69 0.321,2.815 0.755,6.384 0.438,3.562 0.772,6.433 1.02,8.603 0.741,6.566 1.11,11.23 1.11,13.992 v 1.444 c 0,0.545 0.206,1.068 0.612,1.575 0.402,0.508 0.866,0.759 1.387,0.759 1.803,0 2.702,-0.743 2.702,-2.221 v -1.147 c 0,-4.888 1.135,-11.957 3.408,-21.21 0.987,-4.05 1.69,-7.293 2.112,-9.74 0.266,2.791 0.759,6.825 1.476,12.11 1.558,11.497 2.332,20.356 2.332,26.573 0,1.112 0.186,1.92 0.555,2.425 0.769,1.052 2.413,1.052 3.431,0.369 1.579,-1.06 0.444,-3.998 0.3,-5.472 C 5.4,49.064 5.42,46.605 5.208,44.175 4.699,38.343 3.826,32.547 2.776,26.79 1.838,21.646 1.049,16.471 0.527,11.268 0.307,9.072 0.135,6.871 0.029,4.666 -0.031,3.408 0.209,1.542 0,0" /></g><g
                 id="g154"
                 transform="translate(123.9064,164.3934)"><path
                   id="path152"
                   style="fill:none;stroke:#1d1d1d;stroke-width:0.1;stroke-linecap:butt;stroke-linejoin:miter;stroke-miterlimit:10;stroke-dasharray:none;stroke-opacity:1"
                   d="m 0,0 c -0.095,-0.7 -0.282,-1.332 -0.631,-1.812 -2.713,-3.722 -4.721,6.085 -4.999,7.311 -1.574,6.927 -2.599,13.988 -3.599,21.016 -0.4,2.863 -0.642,4.515 -0.745,4.959 -0.939,-6.737 -1.652,-12.55 -2.146,-17.454 -0.493,-4.899 -0.745,-9.754 -0.745,-14.564 0,-0.543 -0.222,-1.033 -0.681,-1.462 -0.456,-0.434 -0.955,-0.648 -1.498,-0.648 -1.853,0 -2.774,1.926 -2.774,5.773 0,2.372 -1.044,11.026 -3.131,25.968 -0.667,4.785 -1.347,9.57 -2.085,14.345 -0.363,2.342 -0.917,4.647 -1.333,6.979 -0.351,1.96 -1.354,4.324 1.295,4.771 1.124,0.19 1.314,0.106 2.022,-0.719 1.378,-1.603 1.632,-4.962 1.988,-6.924 0.951,-5.255 1.765,-11.629 2.445,-19.118 0.677,-7.488 1.028,-11.282 1.056,-11.379 0.073,0.69 0.321,2.815 0.755,6.384 0.438,3.562 0.772,6.433 1.02,8.603 0.741,6.566 1.11,11.23 1.11,13.992 v 1.444 c 0,0.545 0.206,1.068 0.612,1.575 0.402,0.508 0.866,0.759 1.387,0.759 1.803,0 2.702,-0.743 2.702,-2.221 v -1.147 c 0,-4.888 1.135,-11.957 3.408,-21.21 0.987,-4.05 1.69,-7.293 2.112,-9.74 0.266,2.791 0.759,6.825 1.476,12.11 1.558,11.497 2.332,20.356 2.332,26.573 0,1.112 0.186,1.92 0.555,2.425 0.769,1.052 2.413,1.052 3.431,0.369 1.579,-1.06 0.444,-3.998 0.3,-5.472 C 5.4,49.064 5.42,46.605 5.208,44.175 4.699,38.343 3.826,32.547 2.776,26.79 1.838,21.646 1.049,16.471 0.527,11.268 0.307,9.072 0.135,6.871 0.029,4.666 -0.031,3.408 0.209,1.542 0,0 Z" /></g><g
                 id="g158"
                 transform="translate(162.2135,216.2736)"><path
                   id="path156"
                   style="fill:#1d1d1d;fill-opacity:1;fill-rule:nonzero;stroke:none"
                   d="m 0,0 c -0.421,-0.057 -0.878,-0.057 -1.324,-0.044 -0.495,0 -0.86,-0.107 -1.089,-0.319 -0.24,-0.208 -0.353,-0.622 -0.353,-1.238 0,-4.936 0.309,-12.326 0.923,-22.172 0.617,-9.849 0.922,-17.237 0.922,-22.171 v -2.926 c 0.521,0.073 1.042,0.109 1.559,0.109 2.1,0 3.144,-0.888 3.144,-2.661 v -0.447 c -0.002,-2.532 -13.586,-2.479 -13.586,0.778 0,1.207 0.767,1.811 2.299,1.811 l 1.593,-0.111 c 0.741,0 1.109,0.594 1.109,1.777 0,3.899 -0.238,9.74 -0.701,17.531 -0.474,7.781 -0.711,13.628 -0.711,17.523 0,0 0.154,7.741 0.154,7.741 0,1.351 0.028,2.829 -0.227,4.139 -0.554,-0.116 -1.162,-0.256 -1.738,-0.256 -1.181,0 -1.778,0.608 -1.778,1.817 0,0.614 0.383,1.155 1.153,1.607 0.759,0.46 1.71,0.782 2.846,0.985 2.124,0.368 3.695,0.55 4.723,0.55 1.023,0 1.754,-0.2 2.199,-0.608 C 1.557,3.009 1.783,2.527 1.783,1.973 1.785,0.592 0.991,0.135 0,0" /></g><g
                 id="g162"
                 transform="translate(162.2135,216.2736)"><path
                   id="path160"
                   style="fill:none;stroke:#1d1d1d;stroke-width:0.1;stroke-linecap:butt;stroke-linejoin:miter;stroke-miterlimit:10;stroke-dasharray:none;stroke-opacity:1"
                   d="m 0,0 c -0.421,-0.057 -0.878,-0.057 -1.324,-0.044 -0.495,0 -0.86,-0.107 -1.089,-0.319 -0.24,-0.208 -0.353,-0.622 -0.353,-1.238 0,-4.936 0.309,-12.326 0.923,-22.172 0.617,-9.849 0.922,-17.237 0.922,-22.171 v -2.926 c 0.521,0.073 1.042,0.109 1.559,0.109 2.1,0 3.144,-0.888 3.144,-2.661 v -0.447 c -0.002,-2.532 -13.586,-2.479 -13.586,0.778 0,1.207 0.767,1.811 2.299,1.811 l 1.593,-0.111 c 0.741,0 1.109,0.594 1.109,1.777 0,3.899 -0.238,9.74 -0.701,17.531 -0.474,7.781 -0.711,13.628 -0.711,17.523 0,0 0.154,7.741 0.154,7.741 0,1.351 0.028,2.829 -0.227,4.139 -0.554,-0.116 -1.162,-0.256 -1.738,-0.256 -1.181,0 -1.778,0.608 -1.778,1.817 0,0.614 0.383,1.155 1.153,1.607 0.759,0.46 1.71,0.782 2.846,0.985 2.124,0.368 3.695,0.55 4.723,0.55 1.023,0 1.754,-0.2 2.199,-0.608 C 1.557,3.009 1.783,2.527 1.783,1.973 1.785,0.592 0.991,0.135 0,0 Z" /></g><g
                 id="g166"
                 transform="translate(190.3741,187.2445)"><path
                   id="path164"
                   style="fill:#1d1d1d;fill-opacity:1;fill-rule:nonzero;stroke:none"
                   d="m 0,0 0.111,14.398 c 0,2.521 -0.188,5.429 -0.557,8.737 -0.26,2.31 -1.17,5.844 -0.301,8.091 0.657,1.696 2.545,1.722 3.617,0.507 1.13,-1.28 1.091,-3.695 1.091,-5.268 0,-0.026 -0.111,-5.221 -0.331,-15.582 0.17,0.42 0.65,1.655 1.44,3.702 0.791,2.05 1.607,4.107 2.441,6.179 0.868,2.051 1.777,4.183 2.74,6.406 2.172,4.981 3.751,7.476 4.736,7.476 0.566,0 1.07,-0.191 1.501,-0.575 0.436,-0.38 0.652,-0.836 0.652,-1.365 0,-0.531 -1.381,-3.687 -4.133,-9.463 C 10.259,17.471 8.71,13.806 8.363,12.251 v -1.334 c 0.743,-1.874 2.76,-8.004 6.051,-18.394 3.297,-10.393 4.944,-15.901 4.944,-16.527 0,-0.625 -0.239,-1.145 -0.725,-1.565 -0.974,-0.84 -3.048,-1.049 -3.644,0.352 -1.089,2.556 -1.096,6.291 -1.671,9.058 -0.628,3.023 -1.304,6.038 -2.064,9.03 C 9.897,-1.787 8.116,3.309 5.922,8.141 4.416,5.453 3.63,3.822 3.551,3.253 3.404,1.726 3.331,0.517 3.331,-0.37 L 3.81,-14.436 v -6.221 c 0,-2.691 -0.862,-4.036 -2.59,-4.036 -1.48,0 -2.215,1.28 -2.215,3.832 0,2.556 0.157,6.104 0.496,10.643 C -0.17,-5.674 0,-2.268 0,0" /></g><g
                 id="g170"
                 transform="translate(190.3741,187.2445)"><path
                   id="path168"
                   style="fill:none;stroke:#1d1d1d;stroke-width:0.1;stroke-linecap:butt;stroke-linejoin:miter;stroke-miterlimit:10;stroke-dasharray:none;stroke-opacity:1"
                   d="m 0,0 0.111,14.398 c 0,2.521 -0.188,5.429 -0.557,8.737 -0.26,2.31 -1.17,5.844 -0.301,8.091 0.657,1.696 2.545,1.722 3.617,0.507 1.13,-1.28 1.091,-3.695 1.091,-5.268 0,-0.026 -0.111,-5.221 -0.331,-15.582 0.17,0.42 0.65,1.655 1.44,3.702 0.791,2.05 1.607,4.107 2.441,6.179 0.868,2.051 1.777,4.183 2.74,6.406 2.172,4.981 3.751,7.476 4.736,7.476 0.566,0 1.07,-0.191 1.501,-0.575 0.436,-0.38 0.652,-0.836 0.652,-1.365 0,-0.531 -1.381,-3.687 -4.133,-9.463 C 10.259,17.471 8.71,13.806 8.363,12.251 v -1.334 c 0.743,-1.874 2.76,-8.004 6.051,-18.394 3.297,-10.393 4.944,-15.901 4.944,-16.527 0,-0.625 -0.239,-1.145 -0.725,-1.565 -0.974,-0.84 -3.048,-1.049 -3.644,0.352 -1.089,2.556 -1.096,6.291 -1.671,9.058 -0.628,3.023 -1.304,6.038 -2.064,9.03 C 9.897,-1.787 8.116,3.309 5.922,8.141 4.416,5.453 3.63,3.822 3.551,3.253 3.404,1.726 3.331,0.517 3.331,-0.37 L 3.81,-14.436 v -6.221 c 0,-2.691 -0.862,-4.036 -2.59,-4.036 -1.48,0 -2.215,1.28 -2.215,3.832 0,2.556 0.157,6.104 0.496,10.643 C -0.17,-5.674 0,-2.268 0,0 Z" /></g><g
                 id="g174"
                 transform="translate(241.6889,216.2425)"><path
                   id="path172"
                   style="fill:#1d1d1d;fill-opacity:1;fill-rule:nonzero;stroke:none"
                   d="m 0,0 c -0.421,-0.039 -0.875,-0.013 -1.322,-0.013 -0.499,0 -0.864,-0.107 -1.096,-0.319 -0.236,-0.208 -0.355,-0.622 -0.355,-1.238 0,-4.936 0.316,-12.326 0.93,-22.172 0.614,-9.849 0.927,-17.237 0.927,-22.171 v -2.926 c 0.517,0.073 1.038,0.109 1.549,0.109 1.42,0 4.174,-1.987 3.075,-3.61 -1.089,-1.608 -5.326,-0.975 -6.96,-0.975 -4.367,0 -6.55,0.749 -6.55,2.255 0,1.207 0.763,1.811 2.296,1.811 l 1.591,-0.111 c 0.741,0 1.11,0.594 1.11,1.777 0,3.899 -0.234,9.741 -0.702,17.531 -0.471,7.781 -0.705,13.628 -0.705,17.523 l 0.149,7.741 c 0,1.625 -0.068,3.033 -0.186,4.216 -1.502,-0.493 -3.553,-0.59 -3.553,1.484 0,0.614 0.384,1.155 1.143,1.607 0.771,0.46 1.72,0.783 2.853,0.985 2.128,0.368 3.695,0.55 4.723,0.55 1.562,0 3.47,-0.9 2.753,-2.836 C 1.338,0.322 0.717,0.067 0,0" /></g><g
                 id="g178"
                 transform="translate(241.6889,216.2425)"><path
                   id="path176"
                   style="fill:none;stroke:#1d1d1d;stroke-width:0.1;stroke-linecap:butt;stroke-linejoin:miter;stroke-miterlimit:10;stroke-dasharray:none;stroke-opacity:1"
                   d="m 0,0 c -0.421,-0.039 -0.875,-0.013 -1.322,-0.013 -0.499,0 -0.864,-0.107 -1.096,-0.319 -0.236,-0.208 -0.355,-0.622 -0.355,-1.238 0,-4.936 0.316,-12.326 0.93,-22.172 0.614,-9.849 0.927,-17.237 0.927,-22.171 v -2.926 c 0.517,0.073 1.038,0.109 1.549,0.109 1.42,0 4.174,-1.987 3.075,-3.61 -1.089,-1.608 -5.326,-0.975 -6.96,-0.975 -4.367,0 -6.55,0.749 -6.55,2.255 0,1.207 0.763,1.811 2.296,1.811 l 1.591,-0.111 c 0.741,0 1.11,0.594 1.11,1.777 0,3.899 -0.234,9.741 -0.702,17.531 -0.471,7.781 -0.705,13.628 -0.705,17.523 l 0.149,7.741 c 0,1.625 -0.068,3.033 -0.186,4.216 -1.502,-0.493 -3.553,-0.59 -3.553,1.484 0,0.614 0.384,1.155 1.143,1.607 0.771,0.46 1.72,0.783 2.853,0.985 2.128,0.368 3.695,0.55 4.723,0.55 1.562,0 3.47,-0.9 2.753,-2.836 C 1.338,0.322 0.717,0.067 0,0 Z" /></g><g
                 id="g182"
                 transform="translate(295.8321,192.8339)"><path
                   id="path180"
                   style="fill:#1d1d1d;fill-opacity:1;fill-rule:nonzero;stroke:none"
                   d="m 0,0 c 3.856,3.602 5.784,7.886 5.784,12.845 v 0.036 c 0,2.837 -0.351,4.824 -1.039,5.959 -0.343,0.541 -0.618,0.973 -0.832,1.276 -0.206,0.31 -0.638,0.724 -1.284,1.243 -0.759,0.614 -1.928,1.49 -3.515,2.629 0,-2.667 0.151,-6.665 0.448,-11.993 C -0.141,6.661 0,2.665 0,0 m -3.549,-27.877 0.371,27.061 c 0,11.893 -0.654,20.916 -1.96,27.06 -0.172,0.812 2.296,1.632 2.873,1.706 C -0.586,28.165 1.46,27.477 2.91,26.686 4.458,25.852 5.706,24.739 6.671,23.358 8.668,20.471 9.669,17.172 9.669,13.471 9.669,9.772 8.862,6.406 7.262,3.386 5.657,0.365 3.303,-1.987 0.194,-3.667 l 0.589,-23.616 c 0,-2.098 -0.835,-3.148 -2.515,-3.148 -0.62,0 -1.076,0.267 -1.369,0.798 -0.303,0.531 -0.448,1.12 -0.448,1.756" /></g><g
                 id="g186"
                 transform="translate(295.8321,192.8339)"><path
                   id="path184"
                   style="fill:none;stroke:#1d1d1d;stroke-width:0.1;stroke-linecap:butt;stroke-linejoin:miter;stroke-miterlimit:10;stroke-dasharray:none;stroke-opacity:1"
                   d="m 0,0 c 3.856,3.602 5.784,7.886 5.784,12.845 v 0.036 c 0,2.837 -0.351,4.824 -1.039,5.959 -0.343,0.541 -0.618,0.973 -0.832,1.276 -0.206,0.31 -0.638,0.724 -1.284,1.243 -0.759,0.614 -1.928,1.49 -3.515,2.629 0,-2.667 0.151,-6.665 0.448,-11.993 C -0.141,6.661 0,2.665 0,0 Z m -3.549,-27.877 0.371,27.061 c 0,11.893 -0.654,20.916 -1.96,27.06 -0.172,0.812 2.296,1.632 2.873,1.706 C -0.586,28.165 1.46,27.477 2.91,26.686 4.458,25.852 5.706,24.739 6.671,23.358 8.668,20.471 9.669,17.172 9.669,13.471 9.669,9.772 8.862,6.406 7.262,3.386 5.657,0.365 3.303,-1.987 0.194,-3.667 l 0.589,-23.616 c 0,-2.098 -0.835,-3.148 -2.515,-3.148 -0.62,0 -1.076,0.267 -1.369,0.798 -0.303,0.531 -0.448,1.12 -0.448,1.756 z" /></g><g
                 id="g190"
                 transform="translate(334.1584,191.4993)"><path
                   id="path188"
                   style="fill:#1d1d1d;fill-opacity:1;fill-rule:nonzero;stroke:none"
                   d="m 0,0 c 0.181,-7.846 0.362,-15.693 0.543,-23.539 0.006,-0.238 0.017,-0.493 0.156,-0.687 0.2,-0.276 0.588,-0.328 0.929,-0.331 1.348,-0.009 2.708,0.375 4.029,0.104 1.32,-0.271 2.586,-1.618 2.075,-2.864 -0.461,-1.122 -1.927,-1.338 -3.138,-1.385 -2.074,-0.082 -4.148,-0.164 -6.222,-0.245 -0.293,-0.012 -0.596,-0.021 -0.867,0.09 -0.735,0.302 -0.86,1.272 -0.873,2.067 -0.178,10.533 -0.44,21.065 -0.797,31.594 -0.18,5.312 -0.716,10.604 -0.926,15.914 -0.079,1.989 -1.287,10.573 3.081,8.394 1.398,-0.697 1.397,-2.548 1.428,-3.893 C -0.388,16.813 -0.194,8.406 0,0" /></g><g
                 id="g194"
                 transform="translate(334.1584,191.4993)"><path
                   id="path192"
                   style="fill:none;stroke:#1d1d1d;stroke-width:0.1;stroke-linecap:butt;stroke-linejoin:miter;stroke-miterlimit:10;stroke-dasharray:none;stroke-opacity:1"
                   d="m 0,0 c 0.181,-7.846 0.362,-15.693 0.543,-23.539 0.006,-0.238 0.017,-0.493 0.156,-0.687 0.2,-0.276 0.588,-0.328 0.929,-0.331 1.348,-0.009 2.708,0.375 4.029,0.104 1.32,-0.271 2.586,-1.618 2.075,-2.864 -0.461,-1.122 -1.927,-1.338 -3.138,-1.385 -2.074,-0.082 -4.148,-0.164 -6.222,-0.245 -0.293,-0.012 -0.596,-0.021 -0.867,0.09 -0.735,0.302 -0.86,1.272 -0.873,2.067 -0.178,10.533 -0.44,21.065 -0.797,31.594 -0.18,5.312 -0.716,10.604 -0.926,15.914 -0.079,1.989 -1.287,10.573 3.081,8.394 1.398,-0.697 1.397,-2.548 1.428,-3.893 C -0.388,16.813 -0.194,8.406 0,0 Z" /></g><g
                 id="g198"
                 transform="translate(379.0913,187.5974)"><path
                   id="path196"
                   style="fill:#1d1d1d;fill-opacity:1;fill-rule:nonzero;stroke:none"
                   d="m 0,0 c -0.452,4.478 -0.85,8.745 -1.213,12.805 -0.352,4.062 -0.534,6.519 -0.534,7.365 0,0.856 0.017,1.343 0.039,1.464 C -2.5,20.82 -3.638,16.292 -5.134,8.048 -6.624,-0.194 -7.416,-5.415 -7.519,-7.61 c 2.1,-0.567 3.85,-0.852 5.276,-0.852 1.421,0 2.417,0.077 3.02,0.226 C 0.697,-7.228 0.436,-4.482 0,0 m 3.18,-24.749 c -1.555,0 -2.332,0.654 -2.332,1.962 v 9.885 c -0.717,0.491 -2.003,0.911 -3.868,1.258 -1.866,0.346 -3.522,0.568 -4.981,0.665 -0.515,-0.885 -0.943,-2.169 -1.276,-3.849 -0.331,-1.681 -0.683,-3.369 -1.04,-5.07 -0.476,-2.28 -0.895,-4.905 -3.765,-3.643 -2.169,0.954 -0.183,4.7 0.308,6.127 1.114,3.24 1.495,6.764 2.072,10.135 1.56,9.108 2.832,16.234 3.824,21.38 1.007,5.147 2.084,9.47 3.245,12.973 0.693,2.09 2.57,7.093 5.78,4.591 0,-1.801 0.486,-6.675 1.474,-14.622 C 3.61,9.098 4.107,3.957 4.107,1.629 c 0,-2.336 0.264,-6.208 0.791,-11.627 0.533,-5.415 0.8,-9.484 0.8,-12.195 0,-1.704 -0.836,-2.556 -2.518,-2.556" /></g><g
                 id="g202"
                 transform="translate(379.0913,187.5974)"><path
                   id="path200"
                   style="fill:none;stroke:#1d1d1d;stroke-width:0.1;stroke-linecap:butt;stroke-linejoin:miter;stroke-miterlimit:10;stroke-dasharray:none;stroke-opacity:1"
                   d="m 0,0 c -0.452,4.478 -0.85,8.745 -1.213,12.805 -0.352,4.062 -0.534,6.519 -0.534,7.365 0,0.856 0.017,1.343 0.039,1.464 C -2.5,20.82 -3.638,16.292 -5.134,8.048 -6.624,-0.194 -7.416,-5.415 -7.519,-7.61 c 2.1,-0.567 3.85,-0.852 5.276,-0.852 1.421,0 2.417,0.077 3.02,0.226 C 0.697,-7.228 0.436,-4.482 0,0 Z m 3.18,-24.749 c -1.555,0 -2.332,0.654 -2.332,1.962 v 9.885 c -0.717,0.491 -2.003,0.911 -3.868,1.258 -1.866,0.346 -3.522,0.568 -4.981,0.665 -0.515,-0.885 -0.943,-2.169 -1.276,-3.849 -0.331,-1.681 -0.683,-3.369 -1.04,-5.07 -0.476,-2.28 -0.895,-4.905 -3.765,-3.643 -2.169,0.954 -0.183,4.7 0.308,6.127 1.114,3.24 1.495,6.764 2.072,10.135 1.56,9.108 2.832,16.234 3.824,21.38 1.007,5.147 2.084,9.47 3.245,12.973 0.693,2.09 2.57,7.093 5.78,4.591 0,-1.801 0.486,-6.675 1.474,-14.622 C 3.61,9.098 4.107,3.957 4.107,1.629 c 0,-2.336 0.264,-6.208 0.791,-11.627 0.533,-5.415 0.8,-9.484 0.8,-12.195 0,-1.704 -0.836,-2.556 -2.518,-2.556 z" /></g><g
                 id="g206"
                 transform="translate(413.0215,199.8011)"><path
                   id="path204"
                   style="fill:#1d1d1d;fill-opacity:1;fill-rule:nonzero;stroke:none"
                   d="m 0,0 c -0.316,-8.954 -1.119,-17.992 1.446,-26.517 0.584,-1.942 1.378,-3.893 2.828,-5.31 1.449,-1.418 3.689,-2.184 5.566,-1.417 1.042,0.427 1.859,1.26 2.83,1.83 0.971,0.57 2.301,0.83 3.163,0.105 1.153,-0.969 0.612,-2.904 -0.403,-4.018 -1.48,-1.626 -3.666,-2.456 -5.843,-2.767 -1.882,-0.269 -3.856,-0.18 -5.6,0.575 -3.668,1.588 -5.532,5.681 -6.516,9.554 -1.417,5.571 -1.697,11.363 -1.791,17.11 -0.069,4.219 -0.042,8.439 0.066,12.657 0.092,3.572 -0.39,7.998 0.414,11.437 1.283,5.49 8.727,8.618 13.752,7.357 1.072,-0.269 2.158,-0.731 2.822,-1.614 0.665,-0.883 0.748,-2.273 -0.062,-3.025 -0.71,-0.659 -1.827,-0.631 -2.751,-0.34 C 8.996,15.909 8.143,16.419 7.193,16.613 4.617,17.139 2.079,15.125 1.047,12.706 0.016,10.288 0.103,7.563 0.101,4.934 0.1,3.294 0.058,1.649 0,0" /></g><g
                 id="g210"
                 transform="translate(413.0215,199.8011)"><path
                   id="path208"
                   style="fill:none;stroke:#1d1d1d;stroke-width:0.1;stroke-linecap:butt;stroke-linejoin:miter;stroke-miterlimit:10;stroke-dasharray:none;stroke-opacity:1"
                   d="m 0,0 c -0.316,-8.954 -1.119,-17.992 1.446,-26.517 0.584,-1.942 1.378,-3.893 2.828,-5.31 1.449,-1.418 3.689,-2.184 5.566,-1.417 1.042,0.427 1.859,1.26 2.83,1.83 0.971,0.57 2.301,0.83 3.163,0.105 1.153,-0.969 0.612,-2.904 -0.403,-4.018 -1.48,-1.626 -3.666,-2.456 -5.843,-2.767 -1.882,-0.269 -3.856,-0.18 -5.6,0.575 -3.668,1.588 -5.532,5.681 -6.516,9.554 -1.417,5.571 -1.697,11.363 -1.791,17.11 -0.069,4.219 -0.042,8.439 0.066,12.657 0.092,3.572 -0.39,7.998 0.414,11.437 1.283,5.49 8.727,8.618 13.752,7.357 1.072,-0.269 2.158,-0.731 2.822,-1.614 0.665,-0.883 0.748,-2.273 -0.062,-3.025 -0.71,-0.659 -1.827,-0.631 -2.751,-0.34 C 8.996,15.909 8.143,16.419 7.193,16.613 4.617,17.139 2.079,15.125 1.047,12.706 0.016,10.288 0.103,7.563 0.101,4.934 0.1,3.294 0.058,1.649 0,0 Z" /></g><g
                 id="g214"
                 transform="translate(461.3361,190.5751)"><path
                   id="path212"
                   style="fill:#1d1d1d;fill-opacity:1;fill-rule:nonzero;stroke:none"
                   d="m 0,0 -1.888,0.073 c -0.739,0 -1.26,-0.184 -1.55,-0.554 V -11.26 c 0,-2.75 -0.278,-5.491 -0.187,-8.246 0.031,-0.945 -0.15,-2.991 0.494,-3.789 0.825,-1.021 2.634,-0.36 3.91,-0.36 2.888,0 4.335,-0.668 4.335,-1.999 v -0.258 c -0.349,-0.693 -0.939,-1.22 -1.778,-1.591 -0.841,-0.372 -1.582,-0.584 -2.221,-0.634 -0.641,-0.045 -1.468,-0.071 -2.484,-0.071 h -2.368 c -1.876,0 -3.041,0.372 -3.477,1.112 -0.196,0.342 -0.295,0.798 -0.295,1.373 V 8.51 c 0,2.912 -0.069,5.826 -0.322,8.728 -0.242,2.789 -1.297,5.999 -0.689,8.78 0.779,3.568 7.074,4.539 9.8,2.947 0.781,-0.456 1.169,-1.054 1.169,-1.795 0,-1.506 -1.149,-2.259 -3.444,-2.259 l -2.181,0.077 c -0.377,0 -0.644,-0.015 -0.824,-0.037 l 0.598,-12.514 c 0,-1.013 -0.063,-2.485 -0.188,-4.426 -0.047,-0.729 -0.616,-3.376 -0.049,-3.927 0.567,-0.551 2.615,0.358 3.401,0.358 0.575,0 1.094,-0.212 1.554,-0.63 C 1.767,3.39 2.005,2.889 2.005,2.292 2.005,1.702 1.813,1.171 1.446,0.705 1.076,0.234 0.594,0 0,0" /></g><g
                 id="g218"
                 transform="translate(461.3361,190.5751)"><path
                   id="path216"
                   style="fill:none;stroke:#1d1d1d;stroke-width:0.1;stroke-linecap:butt;stroke-linejoin:miter;stroke-miterlimit:10;stroke-dasharray:none;stroke-opacity:1"
                   d="m 0,0 -1.888,0.073 c -0.739,0 -1.26,-0.184 -1.55,-0.554 V -11.26 c 0,-2.75 -0.278,-5.491 -0.187,-8.246 0.031,-0.945 -0.15,-2.991 0.494,-3.789 0.825,-1.021 2.634,-0.36 3.91,-0.36 2.888,0 4.335,-0.668 4.335,-1.999 v -0.258 c -0.349,-0.693 -0.939,-1.22 -1.778,-1.591 -0.841,-0.372 -1.582,-0.584 -2.221,-0.634 -0.641,-0.045 -1.468,-0.071 -2.484,-0.071 h -2.368 c -1.876,0 -3.041,0.372 -3.477,1.112 -0.196,0.342 -0.295,0.798 -0.295,1.373 V 8.51 c 0,2.912 -0.069,5.826 -0.322,8.728 -0.242,2.789 -1.297,5.999 -0.689,8.78 0.779,3.568 7.074,4.539 9.8,2.947 0.781,-0.456 1.169,-1.054 1.169,-1.795 0,-1.506 -1.149,-2.259 -3.444,-2.259 l -2.181,0.077 c -0.377,0 -0.644,-0.015 -0.824,-0.037 l 0.598,-12.514 c 0,-1.013 -0.063,-2.485 -0.188,-4.426 -0.047,-0.729 -0.616,-3.376 -0.049,-3.927 0.567,-0.551 2.615,0.358 3.401,0.358 0.575,0 1.094,-0.212 1.554,-0.63 C 1.767,3.39 2.005,2.889 2.005,2.292 2.005,1.702 1.813,1.171 1.446,0.705 1.076,0.234 0.594,0 0,0 Z" /></g><g
                 id="g222"
                 transform="translate(488.5259,163.7004)"><path
                   id="path220"
                   style="fill:#1d1d1d;fill-opacity:1;fill-rule:nonzero;stroke:none"
                   d="m 0,0 c 0,1.357 0.565,2.039 1.704,2.039 0.564,0 1.314,-0.192 2.241,-0.577 0.925,-0.384 1.726,-0.574 2.399,-0.574 0.688,0 1.417,0.43 2.201,1.295 0.799,0.864 1.417,1.94 1.857,3.224 0.909,2.614 1.367,4.975 1.367,7.089 0,2.106 -0.364,4.373 -1.106,6.79 -0.749,2.42 -1.64,4.686 -2.706,6.812 -1.058,2.122 -2.134,4.24 -3.226,6.364 -2.562,5.058 -3.834,9.675 -3.804,13.844 -0.03,3.948 1.221,7.047 3.735,9.292 1.337,1.187 2.903,1.777 4.706,1.777 0.911,0 1.799,-0.251 2.661,-0.757 1.462,-0.858 2.616,-2.764 0.316,-3.536 -0.825,-0.277 -2.08,0.199 -2.759,0.667 -0.94,-0.101 -1.75,-0.544 -2.435,-1.331 -1.268,-1.46 -1.899,-3.251 -1.899,-5.389 0,-2.136 0.272,-4.213 0.821,-6.235 0.543,-2.025 1.224,-3.838 2.031,-5.443 0.816,-1.603 1.69,-3.347 2.631,-5.221 0.961,-1.874 1.854,-3.673 2.665,-5.403 1.906,-3.996 2.851,-8.316 2.851,-12.956 C 16.276,8.512 15.446,5.377 13.768,2.368 12.984,0.937 11.888,-0.242 10.511,-1.169 9.126,-2.09 7.59,-2.552 5.883,-2.552 c -1.827,0 -3.262,0.268 -4.31,0.81 C 0.525,-1.195 0,-0.618 0,0" /></g><g
                 id="g226"
                 transform="translate(488.5259,163.7004)"><path
                   id="path224"
                   style="fill:none;stroke:#1d1d1d;stroke-width:0.1;stroke-linecap:butt;stroke-linejoin:miter;stroke-miterlimit:10;stroke-dasharray:none;stroke-opacity:1"
                   d="m 0,0 c 0,1.357 0.565,2.039 1.704,2.039 0.564,0 1.314,-0.192 2.241,-0.577 0.925,-0.384 1.726,-0.574 2.399,-0.574 0.688,0 1.417,0.43 2.201,1.295 0.799,0.864 1.417,1.94 1.857,3.224 0.909,2.614 1.367,4.975 1.367,7.089 0,2.106 -0.364,4.373 -1.106,6.79 -0.749,2.42 -1.64,4.686 -2.706,6.812 -1.058,2.122 -2.134,4.24 -3.226,6.364 -2.562,5.058 -3.834,9.675 -3.804,13.844 -0.03,3.948 1.221,7.047 3.735,9.292 1.337,1.187 2.903,1.777 4.706,1.777 0.911,0 1.799,-0.251 2.661,-0.757 1.462,-0.858 2.616,-2.764 0.316,-3.536 -0.825,-0.277 -2.08,0.199 -2.759,0.667 -0.94,-0.101 -1.75,-0.544 -2.435,-1.331 -1.268,-1.46 -1.899,-3.251 -1.899,-5.389 0,-2.136 0.272,-4.213 0.821,-6.235 0.543,-2.025 1.224,-3.838 2.031,-5.443 0.816,-1.603 1.69,-3.347 2.631,-5.221 0.961,-1.874 1.854,-3.673 2.665,-5.403 1.906,-3.996 2.851,-8.316 2.851,-12.956 C 16.276,8.512 15.446,5.377 13.768,2.368 12.984,0.937 11.888,-0.242 10.511,-1.169 9.126,-2.09 7.59,-2.552 5.883,-2.552 c -1.827,0 -3.262,0.268 -4.31,0.81 C 0.525,-1.195 0,-0.618 0,0 Z" /></g></g></g></g></g></g><g
       transform="translate(343.2035,297.0654)"
       id="g232"><path
         id="path234"
         style="fill:#faba21;fill-opacity:1;fill-rule:nonzero;stroke:none"
         d="m 0,0 h -19.811 l -1.77,-4.61 h -42.62 L -66.252,0 -86.077,0.046 -93.261,-49.341 H 7.291 Z" /></g><g
       id="g236"><g
         clip-path="url(#clipPath242)"
         id="g238"><g
           transform="translate(333.4673,288.2863)"
           id="g244"><path
             id="path246"
             style="fill:#6a2e21;fill-opacity:1;fill-rule:nonzero;stroke:none"
             d="M 0,0 C -4.654,0 -6.701,-13.911 -6.701,-13.911 H 7.166 C 7.166,-13.911 5.673,0 0,0" /></g><g
           transform="translate(267.2494,288.2863)"
           id="g248"><path
             id="path250"
             style="fill:#6a2e21;fill-opacity:1;fill-rule:nonzero;stroke:none"
             d="M 0,0 C -5.673,0 -7.166,-13.911 -7.166,-13.911 H 6.699 C 6.699,-13.911 4.652,0 0,0" /></g><g
           transform="translate(343.0371,300.0375)"
           id="g252"><path
             id="path254"
             style="fill:#f5a020;fill-opacity:1;fill-rule:nonzero;stroke:none"
             d="M 0,0 H 3.412 L 5.395,13.15 H 3.412 -0.864 v -2.485 h -2.294 v 2.485 h -5.431 v -2.391 h -2.293 v 2.391 h -5.615 v -2.485 h -2.116 v 2.485 h -5.393 L -22.03,0 h 3.417 z" /></g><g
           transform="translate(257.7074,300.0375)"
           id="g256"><path
             id="path258"
             style="fill:#f5a020;fill-opacity:1;fill-rule:nonzero;stroke:none"
             d="m 0,0 h -3.414 l -1.983,13.15 h 1.983 4.278 v -2.485 h 2.298 v 2.485 h 5.429 v -2.391 h 2.298 V 13.15 H 16.5 v -2.485 h 2.118 v 2.485 h 5.396 L 22.028,0 h -3.41 z" /></g><g
           transform="translate(284.8179,318.7789)"
           id="g260"><path
             id="path262"
             style="fill:#2186a3;fill-opacity:1;fill-rule:evenodd;stroke:none"
             d="m 0,0 c 5.95,9.292 9.857,19.718 13.073,30.183 0.234,0.757 0.404,1.55 0.701,2.277 1.544,3.852 1.209,7.882 1.213,11.886 v 2.699 c 2.286,0.622 5.365,-0.464 6.819,-2.255 0.942,-1.155 1.912,-2.334 3.03,-3.333 1.811,-1.617 3.867,-1.682 5.971,-0.527 0.32,0.171 0.641,0.333 0.912,0.559 2.33,1.954 4.815,2.005 7.436,0.646 0.495,-0.246 1.008,-0.47 1.518,-0.701 1.783,-0.811 3.584,-1.502 5.644,-0.876 -1.046,-2.556 -3.617,-3.479 -5.896,-2.148 -0.713,0.418 -1.341,0.987 -2.043,1.438 -1.432,0.912 -2.649,0.789 -3.903,-0.36 -0.2,-0.19 -0.406,-0.371 -0.583,-0.595 -2.332,-2.87 -5.351,-3.318 -8.602,-2.161 -2.043,0.717 -3.927,1.88 -5.887,2.831 -0.86,0.408 -1.708,0.832 -2.599,1.161 -0.617,0.234 -1.005,-0.042 -0.934,-0.761 0.163,-1.727 0.092,-3.523 0.541,-5.173 2.73,-9.976 6.109,-19.732 10.969,-28.91 1.048,-1.985 2.249,-3.748 3.463,-5.85 z" /></g><path
           id="path264"
           style="fill:#faba21;fill-opacity:1;fill-rule:nonzero;stroke:none"
           d="m 312.19,290.983 h -23.942 v 24.856 h 23.942 z" /><g
           transform="translate(300.6823,274.2941)"
           id="g266"><path
             id="path268"
             style="fill:#6a2e21;fill-opacity:1;fill-rule:nonzero;stroke:none"
             d="M 0,0 C -11.373,0 -14.357,-26.57 -14.357,-26.57 H 13.427 C 13.427,-26.57 9.326,0 0,0" /></g><g
           id="g270"><g
             id="g272" /><g
             id="g328"><g
               style="opacity:0.89999402"
               id="g326"
               clip-path="url(#clipPath276)"><g
                 id="g280"
                 transform="translate(162.3079,38.7651)"><path
                   id="path278"
                   style="fill:#1d1d1d;fill-opacity:1;fill-rule:nonzero;stroke:none"
                   d="M 0,0 C -0.038,0.155 -0.038,0.464 -0.115,0.464 -0.539,0.656 -0.848,1.195 -1.349,1.003 V 1.117 C -1.696,1.003 -2.043,0.925 -2.35,0.733 -2.619,0.579 -2.813,0.232 -3.043,0 -3.545,-0.384 -3.545,-0.925 -3.816,-1.504 -4.008,-1.851 -4.2,-2.235 -4.24,-2.621 -4.355,-3.275 -4.278,-3.854 -4.355,-4.624 -4.393,-4.971 -4.47,-5.165 -4.432,-5.472 c 0,-0.232 0.077,-0.347 0.117,-0.579 0.115,-0.656 -0.155,-1.157 0.075,-1.656 0.194,-0.464 0.501,-0.502 0.81,-0.195 0.155,0.117 0.309,0.27 0.424,0.464 0.539,0.771 1.157,1.542 1.657,2.39 0.463,0.77 0.772,1.656 1.196,2.466 0.193,0.385 0.23,0.771 0.23,1.195 C 0.04,-0.925 0.04,-0.462 0,0 m 12.064,-4.624 c -0.115,-0.694 -0.731,-1.736 -0.925,-2.39 -0.307,-1.002 -2.003,-4.432 -2.736,-5.242 -0.309,-0.385 -0.731,-0.694 -1.08,-1.08 -0.347,-0.963 -1.195,-1.542 -2.235,-1.542 -4.47,0 -3.315,7.555 -4.47,9.443 -0.925,-1.078 -2.853,-3.739 -4.279,-3.739 -2.158,0 -3.393,2.237 -3.393,4.163 0,2.083 2.16,6.899 4.627,6.899 0.848,0 1.656,-0.539 2.389,-0.925 C 0,1.504 0.117,2.082 0.117,2.659 0.117,2.853 0.04,3.006 -0.077,3.2 0,3.584 0.347,3.893 0.733,3.893 1.08,3.893 1.658,3.624 2.005,3.507 2.275,3.392 2.544,3.237 2.853,3.237 4.085,3.2 5.627,1.157 5.627,-0.038 c 0,-0.77 -0.23,-1.503 -0.23,-2.274 0,-2.968 1.387,-5.974 1.387,-9.211 0,-0.117 0,-0.232 0.04,-0.309 0.075,-0.078 0.152,-0.115 0.23,-0.115 0.309,0 0.463,0.346 0.618,0.576 0.885,1.466 1.694,2.544 2.312,4.125 0.307,0.809 1.078,3.083 1.773,4.971 l 0.499,-0.077 c 0.078,-0.307 0.078,-0.461 0.078,-0.771 0.039,-0.616 -0.192,-1 -0.27,-1.501" /></g><g
                 id="g284"
                 transform="translate(199.2378,34.9887)"><path
                   id="path282"
                   style="fill:#1d1d1d;fill-opacity:1;fill-rule:nonzero;stroke:none"
                   d="m 0,0 c -0.695,-1.157 -1.349,-3.354 -2.043,-4.432 -0.656,-0.965 -2.274,-4.318 -2.738,-4.819 -0.115,-0.115 -0.269,-0.154 -0.424,-0.154 -1.694,0 -3.891,2.544 -3.931,4.202 -0.077,1.888 -0.384,3.776 -0.462,5.665 -0.964,-1.041 -4.047,-6.321 -4.047,-7.632 0,-0.539 0.269,-1.657 0.346,-2.196 0.117,-1.466 -0.653,-1.696 -1.501,-1.696 0.037,0 -2.969,1.195 -2.969,4.393 0,0.347 0.038,0.656 0.078,1.002 0,0.811 -0.502,3.123 -0.618,4.24 -0.038,0.27 -0.193,0.579 -0.193,0.848 0,0.193 0.155,0.424 0.155,0.656 0,0.462 -0.27,0.577 -0.27,0.886 0,0.154 0.308,0.539 0.347,0.81 0.077,0.577 0.462,1.272 1.118,1.272 l 0.115,-0.039 c 1.541,-0.385 3.509,-1.542 4.047,-3.123 0.115,-0.384 0.193,-0.808 0.27,-1.232 1.002,1.618 1.349,1.85 2.429,3.352 0.23,0.309 0.886,1.427 1.31,1.619 0.154,0.039 0.655,0.578 0.77,0.578 0.115,0 0.232,-0.077 0.347,-0.077 0.192,0 0.309,0.077 0.501,0.117 0.309,0.075 0.888,0.075 1.195,0.075 0.155,0 0.811,-0.539 0.963,-0.654 0.155,-0.077 0.424,-1.04 0.501,-1.234 0.232,-0.654 0.309,-0.963 0.309,-1.773 0,-0.499 0.232,-0.809 0.078,-1.233 -0.115,-0.424 -0.309,-2.658 -0.309,-3.005 0,-0.117 0.117,-0.272 0.117,-0.387 0,-0.154 -0.195,-0.192 -0.195,-0.424 0,-0.231 0.117,-0.461 0.117,-0.693 0,-0.077 -0.077,-0.848 0.078,-0.848 1,0 3.814,6.515 4.085,7.246 0.115,0.346 0.347,0.501 0.731,0.501 0.232,0 0.27,-0.27 0.27,-0.462 C 0.577,0.808 0.23,0.424 0,0" /></g><g
                 id="g288"
                 transform="translate(213.3092,36.1438)"><path
                   id="path286"
                   style="fill:#1d1d1d;fill-opacity:1;fill-rule:nonzero;stroke:none"
                   d="m 0,0 c -0.424,-0.038 -0.848,-0.115 -1.272,-0.115 -0.695,0 -1.08,-0.501 -1.658,-0.578 -0.232,-0.424 -0.579,-0.809 -0.848,-1.195 -0.656,-0.963 -0.502,-1.427 -0.926,-2.39 -0.461,-1.002 -0.77,-1.773 -0.77,-2.928 0,-0.541 0.077,-1.042 0.269,-1.544 0.347,0.31 0.695,0.579 0.965,0.965 1.811,2.313 3.083,5.049 4.355,7.67 z m 11.91,-2.235 c -0.117,-0.462 -0.232,-0.886 -0.232,-1.349 0,-0.501 -0.155,-1.003 -0.232,-1.464 -0.347,-1.427 -0.771,-2.891 -1.349,-4.086 -0.307,-0.693 -0.694,-1.387 -1.003,-2.082 -0.346,-0.731 -0.848,-1.657 -1.502,-2.081 -0.154,-0.115 -0.346,-0.192 -0.578,-0.192 -0.155,0 -0.309,0.077 -0.501,0.077 -0.155,0 -0.309,-0.039 -0.462,-0.039 -0.501,0 -1.349,0.501 -1.928,0.656 -0.733,0.231 -1.272,0.693 -1.734,1.309 -0.386,0.464 -0.848,0.888 -1.157,1.427 -0.77,1.464 -0.848,4.163 -1.04,5.819 -0.347,-0.038 -0.386,-0.462 -0.269,-0.731 -0.272,-1.312 -0.771,-2.352 -1.427,-3.507 -0.269,-0.424 -0.656,-0.733 -0.925,-1.12 -0.192,-0.923 -1.504,-1.194 -2.275,-1.194 -2.851,0 -4.008,2.776 -4.008,5.205 0,1.347 0.81,4.779 1.464,5.781 0.155,0.192 0.347,0.307 0.502,0.499 0.81,1.043 1.773,2.315 3.237,2.315 1.696,0 2.968,-2.083 3.584,-2.083 0.618,0 0.618,3.355 0.696,3.931 0.037,0.848 0,1.696 0.075,2.584 0.232,2.659 0.848,5.512 1.89,7.979 0.27,0.616 0.809,2.312 1.579,2.312 0.347,0 1.465,-0.541 1.889,-0.616 0.271,-0.078 0.618,-0.04 0.887,-0.04 0.656,0 1.003,-1.157 1.003,-1.656 0,-1.35 -0.888,-2.429 -0.888,-3.277 0,-0.193 0.04,-0.385 0.04,-0.579 C 7.246,9.984 6.705,8.326 6.32,6.784 6.128,5.898 6.128,4.664 6.128,3.739 c 0,-0.771 0.115,-1.542 0.115,-2.312 0,-0.656 -0.077,-1.35 -0.077,-2.004 0,-1.272 -0.077,-2.583 -0.077,-3.855 0,-1.35 -0.038,-2.736 0.039,-4.046 0.038,-0.733 0.347,-1.042 0.347,-1.581 0,-0.155 0.038,-0.616 0.269,-0.886 0.115,-0.194 0.193,-0.271 0.347,-0.386 0.077,-0.038 0.155,-0.077 0.232,-0.115 0.462,-0.117 0.501,0.539 0.771,0.925 0.23,0.385 0.307,0.192 0.539,1.001 0.539,2.159 1.002,2.621 1.581,4.781 0.152,0.576 0.384,1.656 0.539,2.195 0.269,1.195 0,2.12 1.194,2.813 0.078,0.04 0.115,0.078 0.193,0.078 h 0.077 c 0.039,-0.115 0.039,-0.23 0.039,-0.307 0,-0.771 -0.116,-1.542 -0.346,-2.275" /></g><g
                 id="g292"
                 transform="translate(255.866,21.1907)"><path
                   id="path290"
                   style="fill:#1d1d1d;fill-opacity:1;fill-rule:nonzero;stroke:none"
                   d="m 0,0 c -0.424,-0.464 -0.771,-0.965 -1.272,-1.349 -0.81,-0.541 -1.312,-1.389 -1.888,-2.12 -0.077,-0.117 -0.155,-0.232 -0.155,-0.347 0.038,-0.925 -0.194,-1.773 0.23,-2.699 0.155,-0.346 0.386,-0.424 0.618,-0.231 0.27,0.269 0.616,0.54 0.771,0.925 0.616,1.349 1.155,2.736 1.656,4.163 0.155,0.501 0.155,1.079 0.232,1.618 C 0.115,-0.04 0.077,-0.04 0,0 M 10.022,10.598 C 9.366,9.481 8.478,8.595 7.63,7.63 6.859,6.744 6.051,5.857 5.241,5.009 5.203,4.934 5.088,4.856 5.088,4.779 5.088,4.008 4.432,3.622 4.163,3.006 3.969,2.619 3.969,2.118 3.816,1.694 3.622,1.117 3.392,0.577 3.198,0 3.006,-0.618 2.774,-1.234 2.659,-1.89 2.582,-2.661 2.273,-3.354 1.849,-3.933 1.04,-5.011 0.23,-6.013 -0.501,-7.093 c -0.616,-0.886 -1.504,-1.003 -2.507,-0.731 -0.384,0.115 -0.731,0.23 -1.117,0.384 -0.077,0.04 -0.232,0.192 -0.27,0.309 -0.578,1.579 -0.655,3.121 0.387,4.316 1.155,1.388 2.467,2.621 3.739,3.932 0.229,0.23 0.346,0.462 0.346,0.771 0.153,2.427 0.307,4.856 0.5,7.284 0.039,0.655 0.154,1.311 0.231,2.005 0,0.077 -0.037,0.231 -0.077,0.346 -0.038,0 -0.077,0.038 -0.115,0.038 C 0.424,11.254 0.23,10.945 0.077,10.638 -0.155,10.059 -0.424,9.518 -1.042,9.249 -1.349,9.094 -1.581,8.787 -1.658,8.401 -1.773,7.939 -2.005,7.515 -2.16,7.091 -2.237,6.899 -2.275,6.705 -2.312,6.513 -2.467,5.974 -2.661,5.472 -3.354,5.433 -4.125,5.395 -4.896,5.318 -5.667,5.356 c -1.002,0.077 -2.08,1.119 -2.235,2.197 -0.154,0.848 -0.192,1.735 -0.154,2.544 0.077,1.888 0.462,3.739 1.272,5.357 0.347,0.656 0.848,1.195 1.31,1.736 0.463,0.539 1.042,1.04 1.503,1.579 0.462,0.579 1.158,0.733 1.889,0.694 0.541,0 1.079,-0.153 1.581,-0.27 0.848,-0.115 1.232,-0.731 1.502,-1.426 0.231,-0.539 0.309,-1.078 0,-1.619 -0.23,-0.385 -0.193,-0.925 -0.23,-1.387 -0.04,-0.347 -0.194,-0.462 -0.502,-0.347 -0.346,0.115 -0.693,0.309 -1.04,0.462 0.115,0.463 0.192,0.925 0.307,1.389 v 0.307 c -0.077,0.386 -0.077,0.771 -0.192,1.157 -0.037,0.192 -0.154,0.501 -0.269,0.539 -0.155,0.077 -0.464,-0.038 -0.502,-0.192 -0.346,-0.926 -0.733,-1.851 -0.925,-2.853 -0.115,-0.847 0.04,-1.734 0,-2.62 0,-0.733 -0.115,-1.466 -0.154,-2.237 -0.038,-0.307 -0.115,-0.616 -0.155,-0.885 0.04,-0.038 0.077,-0.078 0.117,-0.115 0.424,0.269 0.963,0.461 1.272,0.808 0.808,0.925 1.579,1.888 2.235,2.891 0.424,0.616 0.539,1.349 0.848,2.043 0.192,0.424 0.462,0.848 0.733,1.349 0.384,-0.155 0.886,-0.27 1.272,-0.539 0.808,-0.618 1.001,-1.234 1.541,-2.16 0.617,-1 0.308,-1.848 0.385,-3.083 0.04,-1.079 0.232,-1.811 0.04,-2.736 -0.04,-0.192 0,-0.386 -0.04,-0.733 0.656,0.618 1.312,1.118 1.813,1.736 0.654,0.808 1.195,1.696 1.771,2.581 0.309,0.539 0.541,1.157 0.888,1.657 0.23,0.386 0.539,0.733 0.808,1.08 0.424,-0.27 0.386,-0.579 0.27,-0.848 -0.347,-0.963 -0.771,-1.889 -1.27,-2.814" /></g><g
                 id="g296"
                 transform="translate(275.2177,39.6903)"><path
                   id="path294"
                   style="fill:#1d1d1d;fill-opacity:1;fill-rule:nonzero;stroke:none"
                   d="M 0,0 C -0.115,0.347 -0.192,0.733 -0.579,0.886 -0.848,1.003 -1.117,1.08 -1.387,1.157 -1.811,1.272 -2.235,0.963 -2.275,0.539 -2.275,0.386 -2.352,0.192 -2.352,0 c 0,-0.192 0,-0.424 0.077,-0.616 0.078,-0.192 0.232,-0.387 0.387,-0.541 0.347,-0.307 0.693,-0.616 1.002,-0.963 0.23,-0.232 0.502,-0.462 0.809,-0.771 C 0,-2.467 0.192,-2.158 0.115,-1.851 0,-1.232 0.269,-0.616 0,0 m 9.79,-17.654 c -0.385,-0.499 -0.771,-1.04 -1.31,-1.387 -0.693,-0.501 -1.464,-0.77 -2.312,-0.848 -1.08,-0.037 -2.16,0 -3.162,0.424 -1.387,0.541 -2.273,1.619 -2.697,3.008 -0.232,0.654 -0.386,1.425 -0.347,2.118 0.038,1.349 0.27,2.699 0.694,4.01 0.347,1.118 0.616,2.273 0.925,3.39 0.115,0.424 0.192,0.848 0.347,1.272 0.115,0.272 0.037,0.387 -0.192,0.464 -0.424,0.115 -0.579,0.347 -1.043,0.384 -0.192,0 -0.578,0.117 -0.731,0.232 -0.154,0.115 -0.346,0.155 -0.501,0.309 -0.154,0.23 -0.309,0.307 -0.578,0.462 -0.963,0.579 -1.619,1.427 -2.12,2.429 -0.232,0.501 -0.579,1.001 -0.656,1.619 v 0.192 c 0,0.424 0.039,0.963 0.424,1.387 0.733,0.232 1.157,0.347 1.89,0.347 0.771,0.039 1.272,0.077 2.003,-0.23 C 1.272,1.541 2.16,1.195 2.16,0.232 2.16,0.038 2.16,-0.077 2.12,-0.269 2.005,-0.886 1.888,-1.232 1.619,-1.811 1.387,-2.312 0.963,-2.699 0.888,-3.006 c -0.04,-0.271 0,-0.463 0.307,-0.541 0.269,-0.037 0.541,-0.152 0.81,-0.152 0.077,0 0.192,0.115 0.27,0.192 0.154,0.115 0.269,0.307 0.384,0.347 0.424,0.077 0.848,0.192 1.234,-0.04 C 4.202,-3.392 4.509,-3.661 4.819,-3.854 5.28,-4.2 5.744,-4.547 6.245,-4.856 6.899,-5.243 7.168,-5.936 7.285,-6.63 7.363,-6.899 7.208,-7.246 7.093,-7.555 6.861,-8.094 6.552,-8.633 6.32,-9.174 6.206,-9.405 6.168,-9.675 6.128,-9.944 c -0.077,-0.462 -0.077,-1.003 -0.154,-1.464 -0.038,-0.539 -0.153,-1.041 -0.23,-1.542 -0.04,-0.269 0.037,-0.501 -0.04,-0.771 -0.115,-0.541 -0.269,-1.042 -0.384,-1.581 -0.04,-0.461 -0.04,-0.885 0.152,-1.309 0.117,-0.155 0.195,-0.31 0.232,-0.502 0.04,-0.541 0.387,-0.848 0.848,-1.002 0.387,-0.115 0.771,0.154 1.04,0.461 0.619,0.696 1.504,1.08 1.928,1.968 0.078,0.077 0.192,0.152 0.27,0.192 0.346,-0.192 0.541,-0.733 0.463,-1.157 -0.077,-0.384 -0.194,-0.731 -0.463,-1.003" /></g><g
                 id="g300"
                 transform="translate(300.004,35.9516)"><path
                   id="path298"
                   style="fill:#1d1d1d;fill-opacity:1;fill-rule:nonzero;stroke:none"
                   d="m 0,0 c -0.117,0.232 -0.232,0.462 -0.424,0.616 -0.309,0.27 -0.656,0.501 -1.042,0.656 -0.307,0.155 -0.654,0.077 -0.771,-0.347 -0.154,-0.463 0,-1.157 0.27,-1.272 0.733,-0.269 1.503,-0.424 2.351,-0.309 C 0.23,-0.384 0.115,-0.192 0,0 m 0.848,-1.811 c -0.155,0.347 -0.349,0.384 -0.656,0.384 -0.386,0 -0.771,0.04 -1.195,0.078 -0.424,0.077 -0.887,0.154 -1.272,0.232 0,-0.579 0,-1.118 -0.039,-1.659 -0.038,-0.885 -0.23,-1.848 -0.153,-2.736 0.076,-0.886 0.385,-1.734 0.654,-2.582 0.117,-0.269 0.386,-0.424 0.616,-0.656 0.232,0.193 0.387,0.31 0.502,0.502 0.578,0.887 1.388,1.618 1.503,2.813 0.04,0.155 0.115,0.309 0.155,0.464 0.307,0.731 0.232,2.467 -0.115,3.16 m 5.356,0.963 c -0.076,-0.077 -0.23,0 -0.308,-0.077 C 5.781,-1.003 5.472,-0.963 5.395,-1.04 5.28,-1.117 5.048,-1.08 4.934,-1.117 4.47,-1.349 3.237,-1.427 2.736,-1.272 2.813,-1.734 2.928,-2.235 2.966,-2.736 3.006,-3.16 2.928,-3.624 2.851,-4.048 2.697,-4.779 2.582,-5.472 2.312,-6.128 2.003,-6.861 1.619,-7.515 1.195,-8.171 0.923,-8.595 0.577,-8.942 0.269,-9.328 c -0.463,-0.539 -1.117,-0.616 -1.735,-0.848 -0.115,-0.038 -0.27,-0.075 -0.385,-0.075 -0.463,-0.04 -0.925,-0.195 -1.311,-0.117 -1.772,0.541 -2.968,1.735 -3.622,3.624 -0.077,0.229 -0.192,0.461 -0.27,0.693 -0.077,0.115 -0.154,0.232 -0.194,0.384 -0.152,0.424 0,0.888 0,1.35 -0.037,0.965 0.078,1.965 0.309,2.93 0.232,1.04 0.617,2.043 1.08,2.968 0.192,0.384 0.501,0.771 0.616,1.232 0.078,0.155 0.115,0.27 0.232,0.347 0.23,0.155 0.502,0.077 0.731,0.192 h 0.194 C -3.778,3.315 -3.315,3.315 -3.045,3.083 -2.391,2.621 -1.736,2.429 -1.003,2.352 0.384,2.197 1.347,1.387 1.965,0.04 c 0.078,-0.078 0.153,-0.195 0.23,-0.309 0.618,-0.232 2.16,0 2.776,0.231 C 5.086,0 5.163,0.077 5.28,0.155 5.472,0.232 5.665,0.347 5.857,0.424 6.011,0.501 6.243,0.616 6.32,0.386 6.398,0.192 6.552,-0.384 6.475,-0.539 6.398,-0.656 6.32,-0.771 6.204,-0.848" /></g><g
                 id="g304"
                 transform="translate(335.0814,34.949)"><path
                   id="path302"
                   style="fill:#1d1d1d;fill-opacity:1;fill-rule:nonzero;stroke:none"
                   d="m 0,0 c -0.579,-0.501 -1.272,-0.771 -2.005,-0.808 -0.424,0 -0.809,0.037 -1.195,0.154 -0.269,0.075 -0.693,0.424 -0.963,0.23 -0.232,-0.155 -0.154,-0.848 -0.154,-1.117 -0.04,-0.462 -0.078,-0.926 -0.155,-1.387 -0.154,-1.387 -0.192,-2.854 -0.539,-4.24 -0.192,-0.656 -0.232,-1.35 -0.386,-2.043 -0.155,-0.579 -0.115,-1.195 -0.27,-1.773 -0.269,-0.886 -0.885,-1.35 -1.696,-1.619 -0.731,-0.27 -1.503,-0.347 -2.274,-0.077 -0.153,0.077 -0.307,0.116 -0.424,0.231 -0.424,0.502 -0.848,1.003 -1.272,1.504 -0.654,0.809 -1.001,1.811 -1.387,2.774 -0.077,0.232 -0.192,0.464 -0.307,0.733 -0.04,0.038 -0.077,0.077 -0.077,0.115 0.114,0.579 -0.195,1.08 -0.272,1.658 -0.038,0.385 -0.153,0.809 -0.23,1.195 -0.117,0.424 -0.154,0.848 -0.154,1.31 0.037,0.347 -0.04,1.002 -0.232,1.311 0,0.038 -0.038,0.038 -0.077,0.038 0,0 -0.038,0 -0.038,-0.038 -0.194,-0.194 -0.232,-0.501 -0.309,-0.772 -0.115,-0.462 -0.27,-0.924 -0.501,-1.348 -0.155,-0.386 -0.424,-0.77 -0.539,-1.194 -0.155,-0.811 -0.347,-1.581 -0.464,-2.392 -0.038,-0.347 0.04,-0.693 0.04,-1.04 0,-0.347 -0.078,-0.616 -0.347,-0.808 -0.155,-0.117 -0.232,-0.309 -0.309,-0.464 -0.077,-0.115 -0.155,-0.23 -0.27,-0.307 -0.231,-0.232 -0.539,-0.386 -0.616,-0.771 0,-0.117 -0.194,-0.194 -0.309,-0.271 -0.656,-0.347 -0.424,-0.654 -1.232,-0.5 -0.272,0.038 -0.424,0.193 -0.579,0.385 -0.347,0.386 -1.157,0.885 -1.389,1.309 -0.461,0.926 -0.576,1.891 -0.77,2.854 -0.385,1.733 -0.424,3.507 -0.462,5.28 0,1.195 0.038,2.389 0.038,3.584 v 0.965 c 0.655,0.307 2.005,0.576 2.813,0.462 0.925,-0.155 0.965,-0.232 1.851,-0.656 0.733,-0.307 0.925,-0.809 0.77,-1.579 -0.077,-0.424 0,-0.848 -0.037,-1.272 v -1.235 c 0,-0.077 0,-0.154 0.037,-0.23 0.194,-0.618 0,-1.272 0,-1.89 0,-0.23 0.04,-0.461 0.04,-0.693 0.077,0 0.115,0 0.154,-0.038 0.115,0.23 0.23,0.424 0.347,0.616 0.307,0.694 0.616,1.387 0.886,2.081 0.192,0.424 0.309,0.887 0.462,1.311 0.154,0.385 0.348,0.771 0.501,1.118 0.039,0.077 0.077,0.154 0.117,0.192 0,0.424 0.309,0.541 0.616,0.733 0.347,0.232 0.693,0.192 1.002,-0.077 0.155,-0.115 0.309,-0.232 0.462,-0.347 0.272,-0.232 0.579,-0.424 0.925,-0.464 0.309,-0.037 0.541,-0.269 0.848,-0.229 0.309,0 0.619,-0.195 0.926,-0.309 0.616,-0.27 1.157,-0.734 1.464,-1.35 0.194,-0.346 0.232,-0.848 0.309,-1.272 0.115,-0.77 0.232,-1.502 0.232,-2.235 0.037,-0.539 0.269,-1.002 0.307,-1.541 0.077,-0.464 0.077,-0.925 0.039,-1.427 0,-0.232 -0.077,-0.616 0.23,-0.693 0.502,-0.115 0.502,0.539 0.618,0.848 0.078,0.232 0.27,0.461 0.27,0.733 0,0.384 0.115,0.771 0.192,1.117 0.077,0.385 0.077,0.694 0.117,1.078 0.038,0.811 0.115,1.619 0.153,2.429 0.039,0.424 0.116,0.809 -0.038,1.195 -0.155,0.347 -0.232,0.694 -0.192,1.118 0,0.192 -0.04,0.346 -0.04,0.538 -0.038,0.232 0.04,0.387 0.04,0.619 0.077,0.384 0.346,0.848 0.808,0.616 0.117,-0.077 0.192,-0.192 0.309,-0.27 0.23,-0.269 0.501,-0.541 0.731,-0.77 C -3.469,0.464 -3.2,0.077 -2.584,0 -1.89,-0.038 -1.157,0.155 -0.579,0.579 -0.464,0.656 -0.347,0.771 -0.194,0.81 -0.077,0.848 0.077,0.848 0.192,0.771 0.307,0.656 0.307,0.464 0.269,0.347 0.192,0.194 0.115,0.077 0,0" /></g><g
                 id="g308"
                 transform="translate(360.2145,34.9887)"><path
                   id="path306"
                   style="fill:#1d1d1d;fill-opacity:1;fill-rule:nonzero;stroke:none"
                   d="m 0,0 c -0.693,-1.157 -1.349,-3.354 -2.043,-4.432 -0.656,-0.965 -2.274,-4.318 -2.736,-4.819 -0.117,-0.115 -0.269,-0.154 -0.424,-0.154 -1.696,0 -3.893,2.544 -3.933,4.202 -0.075,1.888 -0.384,3.776 -0.462,5.665 -0.962,-1.041 -4.047,-6.321 -4.047,-7.632 0,-0.539 0.271,-1.657 0.348,-2.196 0.115,-1.466 -0.655,-1.696 -1.503,-1.696 0.037,0 -2.969,1.195 -2.969,4.393 0,0.347 0.038,0.656 0.078,1.002 0,0.811 -0.502,3.123 -0.616,4.24 -0.04,0.27 -0.195,0.579 -0.195,0.848 0,0.193 0.155,0.424 0.155,0.656 0,0.462 -0.27,0.577 -0.27,0.886 0,0.154 0.31,0.539 0.347,0.81 0.077,0.577 0.464,1.272 1.118,1.272 l 0.117,-0.039 c 1.541,-0.385 3.507,-1.542 4.045,-3.123 0.117,-0.384 0.193,-0.808 0.27,-1.232 1.002,1.618 1.349,1.85 2.429,3.352 0.232,0.309 0.886,1.427 1.31,1.619 0.154,0.039 0.655,0.578 0.77,0.578 0.117,0 0.232,-0.077 0.347,-0.077 0.194,0 0.309,0.077 0.501,0.117 0.31,0.075 0.888,0.075 1.195,0.075 0.155,0 0.811,-0.539 0.965,-0.654 0.155,-0.077 0.424,-1.04 0.501,-1.234 0.23,-0.654 0.307,-0.963 0.307,-1.773 0,-0.499 0.232,-0.809 0.078,-1.233 -0.115,-0.424 -0.309,-2.658 -0.309,-3.005 0,-0.117 0.117,-0.272 0.117,-0.387 0,-0.154 -0.193,-0.192 -0.193,-0.424 0,-0.231 0.115,-0.461 0.115,-0.693 0,-0.077 -0.077,-0.848 0.078,-0.848 1.002,0 3.816,6.515 4.085,7.246 0.115,0.346 0.347,0.501 0.731,0.501 0.232,0 0.272,-0.27 0.272,-0.462 C 0.579,0.808 0.232,0.424 0,0" /></g><g
                 id="g312"
                 transform="translate(379.4136,32.7141)"><path
                   id="path310"
                   style="fill:#1d1d1d;fill-opacity:1;fill-rule:nonzero;stroke:none"
                   d="M 0,0 C -0.541,-0.115 -1.08,-0.269 -1.619,-0.424 -1.967,-0.501 -2.314,-0.579 -2.661,-0.656 -3.2,-0.733 -3.778,-0.771 -4.357,-0.848 v 0.077 C -5.088,-0.81 -5.859,-0.81 -6.63,-0.848 c -0.271,0 -0.501,-0.155 -0.77,-0.232 -0.078,0 -0.155,-0.037 -0.272,-0.077 -0.808,-0.27 -1.309,0.848 -1.733,2.16 -0.27,0.731 -0.038,1.733 0.346,1.733 0.886,0.04 1.734,-0.077 2.622,-0.077 0.539,0 1.117,0.117 1.696,0.154 0.501,0.04 1.002,0.193 1.502,0.04 0.463,-0.117 0.925,-0.117 1.349,0.27 0.386,0.346 0.733,0.346 1.117,0.077 C -0.464,3.045 -0.349,2.582 -0.232,2.12 -0.077,1.581 0,0.963 0.115,0.347 0.153,0.115 0.115,0.038 0,0" /></g><g
                 id="g316"
                 transform="translate(408.1289,33.3699)"><path
                   id="path314"
                   style="fill:#1d1d1d;fill-opacity:1;fill-rule:nonzero;stroke:none"
                   d="M 0,0 C -0.307,-0.541 -0.808,-1.658 -1.31,-2.699 -1.851,-3.856 -2.35,-5.165 -2.736,-5.667 -2.928,-5.936 -3.121,-6.206 -3.352,-6.475 -3.584,-6.746 -3.854,-7.054 -4.123,-7.323 -4.2,-7.4 -4.315,-7.44 -4.393,-7.478 c -0.271,-0.116 -0.541,-0.192 -0.81,-0.269 -0.115,-0.04 -0.232,0 -0.347,0.038 -0.154,0 -0.269,0.077 -0.346,0.077 -0.232,0.269 -0.387,0.501 -0.617,0.693 -0.231,0.232 -0.501,0.464 -0.77,0.656 -0.387,0.27 -0.656,0.656 -0.926,1.08 -0.269,0.462 -0.618,0.923 -0.925,1.347 h -0.077 c -0.309,-0.499 -0.811,-0.885 -1.118,-1.424 -0.192,-0.309 -0.424,-0.579 -0.655,-0.811 -0.385,-0.384 -0.809,-0.848 -1.31,-1.04 -0.194,-0.077 -0.347,-0.154 -0.541,-0.232 -0.23,-0.154 -0.424,-0.269 -0.693,-0.346 -1.195,-0.309 -2.35,0.115 -3.198,0.925 -0.771,0.693 -1.003,2.08 -1.003,3.045 0,1.195 0.038,2.39 0.115,3.584 0.117,1.272 0.192,2.428 0.117,3.7 -0.077,0.964 0.424,2.389 -0.618,3.007 -0.038,0 -0.078,0.038 -0.115,0.038 0,0.04 -0.04,0.04 -0.077,0.117 0.848,0.269 1.618,0.269 2.389,-0.155 1.157,-0.656 2.043,-1.541 2.699,-2.661 0.231,-0.384 0.501,-0.808 0.578,-1.232 0.077,-0.501 -0.039,-1.04 -0.077,-1.581 -0.04,-0.153 -0.077,-0.27 -0.077,-0.424 -0.078,-0.27 -0.155,-0.577 -0.193,-0.886 -0.039,-0.309 -0.039,-0.616 -0.077,-0.925 -0.077,-0.579 -0.154,-1.118 -0.154,-1.696 -0.04,-0.462 -0.04,-0.925 -0.04,-1.427 0,-0.539 0.04,-1.078 0.077,-1.618 0.04,-0.038 0.078,-0.038 0.117,-0.078 0.115,0.078 0.307,0.155 0.424,0.272 0.462,0.424 0.963,0.848 1.425,1.309 0.309,0.31 0.541,0.694 0.77,1.08 0.387,0.579 0.734,1.233 1.158,1.811 0.269,0.424 0.424,0.886 0.501,1.349 0.115,1.041 0.501,2.004 0.808,2.968 0.194,0.462 0.424,0.963 0.232,1.502 -0.077,0.194 0,0.424 0.309,0.349 1.003,-0.155 1.851,-0.579 2.582,-1.312 0.117,-0.154 0.154,-0.269 0.039,-0.461 -0.077,-0.155 -0.077,-0.347 -0.077,-0.541 0,-0.731 0.077,-1.425 0,-2.158 -0.04,-0.461 -0.04,-0.885 0.038,-1.349 0.039,-0.192 -0.115,-0.424 -0.115,-0.616 -0.04,-0.387 0.037,-0.811 0,-1.235 -0.077,-0.653 -0.309,-1.347 -0.347,-2.042 0,-0.23 0,-0.502 0.115,-0.732 0.115,-0.231 0.539,-0.346 0.771,-0.269 0.269,0.115 0.578,0.654 0.771,0.886 0.54,0.616 0.77,1.618 1.157,2.352 0.307,0.538 1.579,3.352 1.888,3.891 0.269,0.501 0.539,1.08 0.848,1.581 C 0.386,2.851 0.693,2.968 0.848,2.774 0.925,2.659 0.925,2.544 0.925,2.427 0.848,1.425 0.541,0.886 0,0" /></g><g
                 id="g320"
                 transform="translate(423.3177,27.3189)"><path
                   id="path318"
                   style="fill:#1d1d1d;fill-opacity:1;fill-rule:nonzero;stroke:none"
                   d="m 0,0 c -0.038,-0.232 0.04,-0.541 0.077,-0.81 0.27,0.077 0.541,0.154 0.771,0.231 0.04,0 0.077,0.078 0.117,0.078 C 1.89,0.192 1.928,1.31 2.275,2.467 1.195,1.811 0.347,1.117 0,0 M 4.587,0.616 C 4.048,-0.271 3.739,-1.003 2.813,-1.349 2.197,-1.581 1.195,-1.851 0.579,-1.89 c -0.732,-0.038 -1.31,0.733 -1.504,1.389 -0.27,0.808 0.117,1.579 0.81,2.042 0.694,0.539 1.427,0.963 2.12,1.465 0.115,0.077 0.192,0.192 0.192,0.309 0.04,1.464 0.078,2.928 0.117,4.392 0,0.424 -0.077,0.733 -0.501,0.848 C 1.389,8.672 1.003,8.518 0.618,8.248 -0.038,7.785 -0.192,7.014 -0.501,6.358 -0.886,5.627 -1.232,4.894 -1.734,4.238 -2.003,3.891 -1.888,3.275 -1.965,2.774 -2.043,2.158 -2.12,1.579 -2.273,0.963 c -0.309,-1.464 -0.77,-2.814 -1.002,-4.317 -0.232,-1.696 -0.27,-3.392 -0.192,-5.088 0.037,-0.848 0.152,-1.696 0.037,-2.505 -0.077,-0.848 -0.386,-1.696 -1.002,-2.274 -0.539,-0.579 -1.502,-0.848 -2.312,-0.731 -1.041,0.152 -0.502,1.077 -0.502,1.81 -0.077,1.156 -0.232,2.313 -0.269,3.47 -0.077,1.464 -0.077,2.891 -0.115,4.355 -0.04,1.965 -0.04,3.968 -0.117,5.936 -0.038,1 0.347,2.003 0.269,2.966 -0.075,0.773 -0.384,1.272 0.155,1.967 0.194,0.27 0.424,0.5 0.464,0.771 0.115,0.616 -0.541,1.001 -0.541,1.579 -0.038,0.541 0.232,1.312 0.346,1.851 0.541,2.621 3.509,0.81 4.859,0.077 0.424,-0.232 0.616,-0.694 0.539,-1.234 -0.04,-0.308 0,-0.654 0,-1.001 0.655,0.269 1.232,0.577 1.85,0.771 0.347,0.115 0.771,0.115 1.118,0 C 2.197,9.134 3.085,8.902 3.856,8.478 4.741,7.977 5.205,7.476 5.512,6.475 5.781,5.627 5.744,4.817 5.629,3.776 5.474,2.504 5.243,1.734 4.587,0.616" /></g><g
                 id="g324"
                 transform="translate(446.6023,22.2309)"><path
                   id="path322"
                   style="fill:#1d1d1d;fill-opacity:1;fill-rule:nonzero;stroke:none"
                   d="m 0,0 c -0.269,-0.386 -0.541,-0.771 -0.925,-1.08 -0.424,-0.309 -0.888,-0.616 -1.312,-0.925 -0.654,-0.424 -1.31,-0.771 -2.08,-0.963 -0.387,-0.115 -0.811,-0.192 -1.235,-0.347 -0.307,-0.117 -0.654,-0.309 -1,-0.309 -0.272,0 -0.579,0.117 -0.848,0.192 -0.387,0.117 -0.811,0.195 -1.235,0.272 -0.231,0.077 -0.461,0.115 -0.653,0.23 -0.349,0.194 -0.579,0.541 -0.773,0.887 -0.424,0.771 -0.809,1.849 -0.347,2.697 0.656,1.157 1.466,2.274 2.738,2.891 0.424,0.231 0.886,0.309 1.31,0.463 0.462,0.192 0.886,0.347 1.349,0.539 0.27,-0.384 0.038,-0.693 -0.232,-0.886 -0.578,-0.424 -1.272,-0.733 -1.85,-1.117 -1.155,-0.771 -1.926,-1.851 -2.043,-3.277 -0.038,-0.347 0.077,-0.731 0.541,-0.886 1.195,-0.463 2.312,-0.424 3.315,0.385 0.461,0.346 0.808,0.965 1.04,1.503 0.307,0.694 0.579,1.387 0.656,2.12 0.075,0.424 -0.077,0.926 -0.309,1.31 -1.157,1.813 -2.198,3.662 -3.046,5.627 -0.731,1.696 -1.04,3.469 -0.925,5.28 0.077,1.043 0.309,2.045 0.733,2.931 0.347,0.733 0.809,1.504 1.542,1.928 0.346,0.192 0.733,0.229 1.117,0.269 0.539,0.115 1.08,0.038 1.619,-0.077 0.733,-0.155 1.387,-0.502 2.043,-0.811 C -0.501,18.694 -0.155,18.539 0,18.27 0.192,17.921 0.192,17.497 0.307,17.15 0.462,16.726 0.539,16.265 0.539,15.841 0.539,15.379 0.424,14.606 0,14.299 -0.424,13.99 -1.08,14.03 -1.541,14.222 c -0.195,0.077 -0.424,0.192 -0.541,0.384 -0.115,0.155 -0.115,0.464 0.039,0.579 0.078,0.04 0.153,0.077 0.23,0.117 0.272,0.115 0.541,0.269 0.733,0.461 0.192,0.232 0.309,0.502 0.309,0.811 -0.039,0.269 -0.194,0.539 -0.386,0.771 -0.424,0.424 -1.619,1.077 -2.003,0.307 -0.464,-0.886 -0.464,-1.811 -0.117,-2.737 0.232,-0.693 0.232,-1.426 0.386,-2.157 0.155,-0.733 0.502,-1.427 0.963,-2.043 0.27,-0.347 0.579,-0.618 0.811,-1.003 C -0.925,9.403 -0.81,9.019 -0.618,8.71 -0.464,8.44 -0.269,8.209 -0.117,7.939 0.192,7.478 0.384,6.976 0.579,6.435 0.693,6.128 0.808,5.782 0.925,5.472 1.078,5.048 1.232,4.624 1.31,4.163 1.541,2.697 0.808,1.232 0,0" /></g></g></g></g></g></g></g></svg>